<?xml version="1.0" encoding="utf-8"?>
<!-- Generator: Adobe Illustrator 23.0.3, SVG Export Plug-In . SVG Version: 6.00 Build 0)  -->
<svg version="1.1" id="Layer_1" xmlns="http://www.w3.org/2000/svg" xmlns:xlink="http://www.w3.org/1999/xlink" x="0px" y="0px"
	 viewBox="0 0 64 64" style="enable-background:new 0 0 64 64;" xml:space="preserve">
<style type="text/css">
	.st0{fill:#D2D9FF;}
</style>
<path class="st0" d="M0,0l0.13,63.98l18.29-10.73l21.55-13.76l14.41-14.17L63.64,0H0z M21.3,5.7V3.03l10.32,0.33l-0.68,5.86
	L21.3,5.7z M30.44,11.14l-7.02,9.63l-6.01-5.5l4.01-7.7L30.44,11.14z M21.5,22.09l-8.89,5.17l-2.28-6.88l5.51-3.85L21.5,22.09z
	 M8.66,28.77l-5.41,0.51v-7.17l3.68-0.43L8.66,28.77z M3.26,31.5l5.95-0.5l2.24,9.21l-8.19,2.02V31.5z M13.35,29.49l9.48-6.09
	l6.03,5.94l-12.69,8.66L13.35,29.49z M24.43,22.43l7.52-10.46l6.79,4.28l-8.3,11.96L24.43,22.43z M32.7,10.32l1.15-6.89l9.24,0.29
	l-2.87,10.72L32.7,10.32z M19.29,2.97v2.06l-6.76-2.28L19.29,2.97z M19.17,6.47l-3.26,7.15L7.27,4.13L19.17,6.47z M14.48,15.19
	l-4.8,3.23L5.76,6.6L14.48,15.19z M6.46,19.72l-3.2,0.38V6.6L6.46,19.72z M3.26,59.16V44.37L11.89,42l2.64,10.83L3.26,59.16z
	 M19.54,48.16l-2.8-8.43l13.25-9.28l7.09,6.98L19.54,48.16z M39.34,34.67l-7.64-5.37l8.51-12.5l10.78,7.54L39.34,34.67z
	 M53.24,21.88l-12.03-6.6l3.36-11.5l16.19-0.89L53.24,21.88z"/>
</svg>
