<?xml version="1.0" encoding="utf-8"?>
<!-- Generator: Adobe Illustrator 23.0.3, SVG Export Plug-In . SVG Version: 6.00 Build 0)  -->
<svg version="1.1" xmlns="http://www.w3.org/2000/svg" xmlns:xlink="http://www.w3.org/1999/xlink" x="0px" y="0px"
	 viewBox="0 0 1080 1080" style="enable-background:new 0 0 1080 1080;" xml:space="preserve">
<style type="text/css">
	.st0{fill:url(#SVGID_1_);}
	.st1{fill:url(#SVGID_2_);}
	.st2{fill:url(#SVGID_3_);}
	.st3{fill:url(#SVGID_4_);}
	.st4{fill:url(#SVGID_5_);}
	.st5{fill:url(#SVGID_6_);}
	.st6{fill:#00DADD;}
	.st7{fill:url(#SVGID_7_);}
	.st8{fill:#95CCFC;}
	.st9{font-family:'Candara';}
	.st10{font-size:114.0797px;}
	.st11{fill:url(#SVGID_8_);}
	.st12{fill:url(#SVGID_9_);}
	.st13{fill:url(#SVGID_10_);}
	.st14{fill:#1E243F;}
	.st15{fill:url(#SVGID_11_);}
	.st16{fill:url(#SVGID_12_);}
	.st17{fill:url(#SVGID_13_);}
	.st18{fill:url(#SVGID_14_);}
	.st19{fill:url(#SVGID_15_);}
	.st20{fill:url(#SVGID_16_);}
	.st21{fill:url(#SVGID_17_);}
	.st22{fill:url(#SVGID_18_);}
	.st23{fill:url(#SVGID_19_);}
	.st24{fill:url(#SVGID_20_);}
	.st25{fill:url(#SVGID_21_);}
	.st26{fill:url(#SVGID_22_);}
	.st27{fill:url(#SVGID_23_);}
	.st28{fill:url(#SVGID_24_);}
	.st29{fill:url(#SVGID_25_);}
	.st30{fill:url(#SVGID_26_);}
	.st31{fill:url(#SVGID_27_);}
	.st32{fill:url(#SVGID_28_);}
	.st33{fill:url(#SVGID_29_);}
	.st34{fill:url(#SVGID_30_);}
	.st35{fill:url(#SVGID_31_);}
	.st36{fill:url(#SVGID_32_);}
</style>
<g id="Layer_1">
</g>
<g id="Layer_2">
	<g>
		<radialGradient id="SVGID_1_" cx="534.8359" cy="493.4677" r="381.9435" gradientUnits="userSpaceOnUse">
			<stop  offset="0" style="stop-color:#00DADD"/>
			<stop  offset="1" style="stop-color:#29ABE2"/>
		</radialGradient>
		<rect x="170.91" y="94.32" class="st0" width="727.84" height="798.31"/>
		
			<linearGradient id="SVGID_2_" gradientUnits="userSpaceOnUse" x1="433.1628" y1="553.4605" x2="327.5753" y2="553.4605" gradientTransform="matrix(-1 0 0 1 585.9996 2.029962e-04)">
			<stop  offset="0" style="stop-color:#1E243F"/>
			<stop  offset="0.2769" style="stop-color:#253541"/>
			<stop  offset="0.709" style="stop-color:#2E4944"/>
			<stop  offset="1" style="stop-color:#315045"/>
		</linearGradient>
		<polygon class="st1" points="153.25,897.42 153.25,204.7 258.83,204.7 258.83,902.22 		"/>
		<linearGradient id="SVGID_3_" gradientUnits="userSpaceOnUse" x1="916.7637" y1="553.4606" x2="811.1763" y2="553.4606">
			<stop  offset="0" style="stop-color:#1E243F"/>
			<stop  offset="0.2769" style="stop-color:#253541"/>
			<stop  offset="0.709" style="stop-color:#2E4944"/>
			<stop  offset="1" style="stop-color:#315045"/>
		</linearGradient>
		<polygon class="st2" points="916.36,897.42 916.36,204.7 810.77,204.7 810.77,902.22 		"/>
		<linearGradient id="SVGID_4_" gradientUnits="userSpaceOnUse" x1="534.8006" y1="1027.0043" x2="534.8006" y2="902.2191">
			<stop  offset="0.1877" style="stop-color:#1E243F"/>
			<stop  offset="1" style="stop-color:#315045"/>
		</linearGradient>
		<polygon class="st3" points="134.05,1027 134.05,902.22 935.55,902.22 935.55,1027 		"/>
		<linearGradient id="SVGID_5_" gradientUnits="userSpaceOnUse" x1="537.2003" y1="181.0452" x2="537.2003" y2="208.1149">
			<stop  offset="0" style="stop-color:#315045"/>
			<stop  offset="0.4727" style="stop-color:#1E243F"/>
			<stop  offset="0.5602" style="stop-color:#1D2842"/>
			<stop  offset="0.6388" style="stop-color:#1C324C"/>
			<stop  offset="0.714" style="stop-color:#19455C"/>
			<stop  offset="0.787" style="stop-color:#145F72"/>
			<stop  offset="0.8586" style="stop-color:#0F808F"/>
			<stop  offset="0.9291" style="stop-color:#08A9B2"/>
			<stop  offset="0.9974" style="stop-color:#00D8DB"/>
			<stop  offset="1" style="stop-color:#00DADD"/>
		</linearGradient>
		<polygon class="st4" points="805.97,214.3 258.83,214.3 258.83,204.7 815.57,204.7 		"/>
		<linearGradient id="SVGID_6_" gradientUnits="userSpaceOnUse" x1="535.6005" y1="181.0452" x2="535.6005" y2="208.1149">
			<stop  offset="0" style="stop-color:#315045"/>
			<stop  offset="0.4727" style="stop-color:#1E243F"/>
			<stop  offset="0.5602" style="stop-color:#1D2842"/>
			<stop  offset="0.6388" style="stop-color:#1C324C"/>
			<stop  offset="0.714" style="stop-color:#19455C"/>
			<stop  offset="0.787" style="stop-color:#145F72"/>
			<stop  offset="0.8586" style="stop-color:#0F808F"/>
			<stop  offset="0.9291" style="stop-color:#08A9B2"/>
			<stop  offset="0.9974" style="stop-color:#00D8DB"/>
			<stop  offset="1" style="stop-color:#00DADD"/>
		</linearGradient>
		<polygon class="st5" points="935.55,204.7 134.05,204.7 103.65,185.5 258.83,177.51 343.62,185.5 486.01,174.31 799.57,185.5 
			858.76,175.91 967.55,185.5 		"/>
		<polygon class="st6" points="807.57,892.62 805.97,214.3 815.57,204.7 817.17,902.22 		"/>
		<polygon class="st6" points="268.43,214.3 270.03,892.62 260.43,902.22 258.83,204.7 		"/>
		<linearGradient id="SVGID_7_" gradientUnits="userSpaceOnUse" x1="538.0002" y1="903.8189" x2="538.0002" y2="892.6202">
			<stop  offset="0" style="stop-color:#00DADD"/>
			<stop  offset="0.0474" style="stop-color:#0CB9B9"/>
			<stop  offset="0.1041" style="stop-color:#179996"/>
			<stop  offset="0.164" style="stop-color:#207F78"/>
			<stop  offset="0.2275" style="stop-color:#286A62"/>
			<stop  offset="0.2959" style="stop-color:#2D5B51"/>
			<stop  offset="0.3729" style="stop-color:#305348"/>
			<stop  offset="0.4765" style="stop-color:#315045"/>
			<stop  offset="0.9816" style="stop-color:#1E243F"/>
		</linearGradient>
		<polygon class="st7" points="817.17,903.82 805.97,892.62 270.03,892.62 258.83,903.82 		"/>
		<text transform="matrix(1 0 0 1 398.3445 132.5815)" class="st8 st9 st10">menu</text>
		
			<linearGradient id="SVGID_8_" gradientUnits="userSpaceOnUse" x1="474.4946" y1="1023.2894" x2="676.0707" y2="1023.2894" gradientTransform="matrix(-0.6563 -0.7545 0.7545 -0.6563 473.879 2063.8594)">
			<stop  offset="0.0184" style="stop-color:#1E243F"/>
			<stop  offset="0.4413" style="stop-color:#315045"/>
			<stop  offset="0.5628" style="stop-color:#305348"/>
			<stop  offset="0.6531" style="stop-color:#2D5B51"/>
			<stop  offset="0.7333" style="stop-color:#286A62"/>
			<stop  offset="0.8077" style="stop-color:#207F78"/>
			<stop  offset="0.878" style="stop-color:#179996"/>
			<stop  offset="0.9444" style="stop-color:#0CB9B9"/>
			<stop  offset="1" style="stop-color:#00DADD"/>
		</linearGradient>
		<circle class="st11" cx="868.36" cy="958.21" r="100.79"/>
		<linearGradient id="SVGID_9_" gradientUnits="userSpaceOnUse" x1="774.7721" y1="962.212" x2="976.3481" y2="962.212">
			<stop  offset="0.1877" style="stop-color:#1E243F"/>
			<stop  offset="1" style="stop-color:#315045"/>
		</linearGradient>
		<circle class="st12" cx="875.56" cy="962.21" r="100.79"/>
		<g>
			<linearGradient id="SVGID_10_" gradientUnits="userSpaceOnUse" x1="922.1747" y1="1018.3936" x2="822.1537" y2="918.3725">
				<stop  offset="0" style="stop-color:#1E243F"/>
				<stop  offset="0.1286" style="stop-color:#233041"/>
				<stop  offset="0.3979" style="stop-color:#2B4243"/>
				<stop  offset="0.6814" style="stop-color:#2F4C45"/>
				<stop  offset="1" style="stop-color:#315045"/>
			</linearGradient>
			<polygon class="st13" points="892.22,877.07 833.84,878.6 792.37,949.26 809.27,1027.61 853.81,1050.65 936.76,1006.1 
				949.05,926.22 916.79,890.89 			"/>
			<polygon class="st14" points="892.22,877.07 919.87,893.97 939.84,924.69 945.98,976.91 912.19,1009.17 872.25,1018.39 
				832.31,995.35 820.02,961.55 849.21,920.08 883,913.93 907.58,933.9 910.65,955.41 904.51,973.84 883,986.13 856.89,981.52 
				846.13,964.63 852.28,987.67 879.93,998.42 913.72,986.13 930.62,963.09 924.47,927.76 889.14,887.82 843.06,900.11 
				809.27,958.48 820.02,1018.39 853.81,1050.65 922.94,1035.29 961.34,984.6 958.27,923.15 927.55,889.36 			"/>
			<radialGradient id="SVGID_11_" cx="843.0613" cy="969.2341" r="66.1505" gradientUnits="userSpaceOnUse">
				<stop  offset="0" style="stop-color:#FBB03B"/>
				<stop  offset="1" style="stop-color:#956700"/>
			</radialGradient>
			<polygon class="st15" points="853.81,1050.65 820.02,1018.39 809.27,958.48 843.06,900.11 889.14,887.82 839.99,887.82 
				796.98,949.26 813.88,1021.46 			"/>
			<radialGradient id="SVGID_12_" cx="878.3917" cy="951.569" r="33.43" gradientUnits="userSpaceOnUse">
				<stop  offset="0" style="stop-color:#FBB03B"/>
				<stop  offset="1" style="stop-color:#956700"/>
			</radialGradient>
			<polygon class="st16" points="907.58,933.9 886.07,917.01 902.97,936.98 904.51,953.87 896.82,969.23 881.46,975.38 
				861.49,978.45 846.13,964.63 856.89,981.52 883,986.13 904.51,973.84 910.65,955.41 			"/>
			<radialGradient id="SVGID_13_" cx="889.1443" cy="972.7946" r="51.5227" gradientUnits="userSpaceOnUse">
				<stop  offset="0" style="stop-color:#FBB03B"/>
				<stop  offset="1" style="stop-color:#956700"/>
			</radialGradient>
			<polygon class="st17" points="940.13,927.2 938.3,973.84 909.11,1001.49 872.25,1013.78 832.31,995.35 870.71,1018.39 
				915.26,1013.78 945.98,976.91 			"/>
		</g>
		
			<linearGradient id="SVGID_14_" gradientUnits="userSpaceOnUse" x1="796.8129" y1="652.7653" x2="998.389" y2="652.7653" gradientTransform="matrix(0.6563 -0.7545 -0.7545 -0.6563 116.6227 2063.8594)">
			<stop  offset="0.0184" style="stop-color:#1E243F"/>
			<stop  offset="0.4413" style="stop-color:#315045"/>
			<stop  offset="0.5628" style="stop-color:#305348"/>
			<stop  offset="0.6531" style="stop-color:#2D5B51"/>
			<stop  offset="0.7333" style="stop-color:#286A62"/>
			<stop  offset="0.8077" style="stop-color:#207F78"/>
			<stop  offset="0.878" style="stop-color:#179996"/>
			<stop  offset="0.9444" style="stop-color:#0CB9B9"/>
			<stop  offset="1" style="stop-color:#00DADD"/>
		</linearGradient>
		<circle class="st18" cx="213.24" cy="958.21" r="100.79"/>
		<linearGradient id="SVGID_15_" gradientUnits="userSpaceOnUse" x1="105.2517" y1="962.212" x2="306.8248" y2="962.212">
			<stop  offset="0.1877" style="stop-color:#1E243F"/>
			<stop  offset="1" style="stop-color:#315045"/>
		</linearGradient>
		<circle class="st19" cx="206.04" cy="962.21" r="100.79"/>
		<g>
			<polygon class="st6" points="199.92,326 199.48,417.63 279.74,425.5 279.74,335.81 			"/>
			<polygon class="st6" points="201.12,303.1 276.59,307.48 276.59,235.1 210.5,235.1 			"/>
			<polygon class="st6" points="210.5,445.96 276.59,445.96 270.29,530.93 210.5,530.93 			"/>
			<polygon class="st6" points="204.2,560.38 273.52,545.39 282.88,620.33 204.2,620.33 			"/>
			<polygon class="st6" points="212.39,642.79 277.85,642.79 277.85,724.61 212.39,708.25 			"/>
			<polygon class="st6" points="210.5,745.33 286.03,734.84 277.64,814.57 210.5,814.57 			"/>
			<linearGradient id="SVGID_16_" gradientUnits="userSpaceOnUse" x1="190.0416" y1="374.9501" x2="270.2943" y2="374.9501">
				<stop  offset="0" style="stop-color:#1E243F"/>
				<stop  offset="1" style="stop-color:#315045"/>
			</linearGradient>
			<polygon class="st20" points="190.48,324.4 190.04,417.63 270.29,425.5 270.29,334.21 			"/>
			<linearGradient id="SVGID_17_" gradientUnits="userSpaceOnUse" x1="191.6821" y1="270.4909" x2="267.1472" y2="270.4909">
				<stop  offset="0" style="stop-color:#1E243F"/>
				<stop  offset="1" style="stop-color:#315045"/>
			</linearGradient>
			<polygon class="st21" points="191.68,303.1 267.15,307.48 267.15,233.5 201.06,235.1 			"/>
			<linearGradient id="SVGID_18_" gradientUnits="userSpaceOnUse" x1="201.0567" y1="488.4453" x2="267.1472" y2="488.4453">
				<stop  offset="0" style="stop-color:#1E243F"/>
				<stop  offset="1" style="stop-color:#315045"/>
			</linearGradient>
			<polygon class="st22" points="201.06,445.96 267.15,445.96 260.85,530.93 201.06,530.93 			"/>
			<linearGradient id="SVGID_19_" gradientUnits="userSpaceOnUse" x1="194.7623" y1="582.8604" x2="273.4415" y2="582.8604">
				<stop  offset="0" style="stop-color:#1E243F"/>
				<stop  offset="1" style="stop-color:#315045"/>
			</linearGradient>
			<polygon class="st23" points="194.76,560.38 264.07,545.39 273.44,620.33 194.76,620.33 			"/>
			<linearGradient id="SVGID_20_" gradientUnits="userSpaceOnUse" x1="202.945" y1="683.7008" x2="268.406" y2="683.7008">
				<stop  offset="0" style="stop-color:#1E243F"/>
				<stop  offset="1" style="stop-color:#315045"/>
			</linearGradient>
			<polygon class="st24" points="202.94,642.79 268.41,642.79 268.41,724.61 202.94,708.25 			"/>
			<linearGradient id="SVGID_21_" gradientUnits="userSpaceOnUse" x1="201.0567" y1="775.5063" x2="276.5887" y2="775.5063">
				<stop  offset="0" style="stop-color:#1E243F"/>
				<stop  offset="1" style="stop-color:#315045"/>
			</linearGradient>
			<polygon class="st25" points="201.06,745.33 276.59,734.84 268.2,816.17 201.06,816.17 			"/>
		</g>
		<g>
			<polygon class="st6" points="877.21,323.6 877.63,415.23 800.05,423.1 800.05,333.41 			"/>
			<polygon class="st6" points="876.05,300.7 803.1,305.08 803.1,232.7 866.98,232.7 			"/>
			<polygon class="st6" points="866.98,443.56 803.1,443.56 809.18,528.53 866.98,528.53 			"/>
			<polygon class="st6" points="873.07,557.98 806.07,542.99 797.01,617.93 873.07,617.93 			"/>
			<polygon class="st6" points="865.16,632.39 801.88,632.39 801.88,714.22 865.16,697.85 			"/>
			<polygon class="st6" points="866.98,795.62 793.97,806.23 802.08,725.58 866.98,725.58 			"/>
			<linearGradient id="SVGID_22_" gradientUnits="userSpaceOnUse" x1="876.7344" y1="372.5504" x2="809.285" y2="372.5504">
				<stop  offset="0" style="stop-color:#1E243F"/>
				<stop  offset="1" style="stop-color:#315045"/>
			</linearGradient>
			<polygon class="st26" points="886.34,322 886.76,415.23 809.18,423.1 809.18,331.81 			"/>
			<linearGradient id="SVGID_23_" gradientUnits="userSpaceOnUse" x1="876.7344" y1="268.8911" x2="809.285" y2="268.8911">
				<stop  offset="0" style="stop-color:#1E243F"/>
				<stop  offset="1" style="stop-color:#315045"/>
			</linearGradient>
			<polygon class="st27" points="885.17,300.7 812.22,305.08 812.22,232.7 876.11,232.7 			"/>
			<linearGradient id="SVGID_24_" gradientUnits="userSpaceOnUse" x1="876.7344" y1="486.0456" x2="809.285" y2="486.0456">
				<stop  offset="0" style="stop-color:#1E243F"/>
				<stop  offset="1" style="stop-color:#315045"/>
			</linearGradient>
			<polygon class="st28" points="876.11,443.56 812.22,443.56 818.31,528.53 876.11,528.53 			"/>
			<linearGradient id="SVGID_25_" gradientUnits="userSpaceOnUse" x1="876.7344" y1="580.4606" x2="809.285" y2="580.4606">
				<stop  offset="0" style="stop-color:#1E243F"/>
				<stop  offset="1" style="stop-color:#315045"/>
			</linearGradient>
			<polygon class="st29" points="882.2,557.98 815.19,542.99 806.14,617.93 882.2,617.93 			"/>
			<linearGradient id="SVGID_26_" gradientUnits="userSpaceOnUse" x1="876.7344" y1="673.3021" x2="809.285" y2="673.3021">
				<stop  offset="0" style="stop-color:#1E243F"/>
				<stop  offset="1" style="stop-color:#315045"/>
			</linearGradient>
			<polygon class="st30" points="874.29,632.39 811.01,632.39 811.01,714.22 874.29,697.85 			"/>
			
				<linearGradient id="SVGID_27_" gradientUnits="userSpaceOnUse" x1="876.7344" y1="630.458" x2="809.285" y2="630.458" gradientTransform="matrix(1 0 0 -1.0115 0 1403.624)">
				<stop  offset="0" style="stop-color:#1E243F"/>
				<stop  offset="1" style="stop-color:#315045"/>
			</linearGradient>
			<polygon class="st31" points="876.11,795.62 803.1,806.23 811.21,725.58 876.11,725.58 			"/>
		</g>
		<g>
			
				<linearGradient id="SVGID_28_" gradientUnits="userSpaceOnUse" x1="418.8393" y1="1018.3936" x2="318.8182" y2="918.3725" gradientTransform="matrix(-1.0284 0 0 1 574.6666 0)">
				<stop  offset="0" style="stop-color:#1E243F"/>
				<stop  offset="0.1286" style="stop-color:#233041"/>
				<stop  offset="0.3979" style="stop-color:#2B4243"/>
				<stop  offset="0.6814" style="stop-color:#2F4C45"/>
				<stop  offset="1" style="stop-color:#315045"/>
			</linearGradient>
			<polygon class="st32" points="174.74,877.07 234.77,878.6 277.42,949.26 260.05,1027.61 214.23,1050.65 128.93,1006.1 
				116.29,926.22 149.46,890.89 			"/>
			<polygon class="st14" points="174.74,877.07 146.3,893.97 125.77,924.69 119.45,976.91 154.2,1009.17 195.28,1018.39 
				236.35,995.35 248.99,961.55 218.97,920.08 184.22,913.93 158.94,933.9 155.78,955.41 162.1,973.84 184.22,986.13 211.07,981.52 
				222.13,964.63 215.81,987.67 187.38,998.42 152.62,986.13 135.25,963.09 141.57,927.76 177.9,887.82 225.29,900.11 
				260.05,958.48 248.99,1018.39 214.23,1050.65 143.15,1035.29 103.65,984.6 106.81,923.15 138.41,889.36 			"/>
			
				<radialGradient id="SVGID_29_" cx="339.7258" cy="969.2341" r="66.1505" gradientTransform="matrix(-1.0284 0 0 1 574.6666 0)" gradientUnits="userSpaceOnUse">
				<stop  offset="0" style="stop-color:#FBB03B"/>
				<stop  offset="1" style="stop-color:#956700"/>
			</radialGradient>
			<polygon class="st33" points="214.23,1050.65 248.99,1018.39 260.05,958.48 225.29,900.11 177.9,887.82 228.45,887.82 
				272.68,949.26 255.31,1021.46 			"/>
			
				<radialGradient id="SVGID_30_" cx="375.0562" cy="951.569" r="33.43" gradientTransform="matrix(-1.0284 0 0 1 574.6666 0)" gradientUnits="userSpaceOnUse">
				<stop  offset="0" style="stop-color:#FBB03B"/>
				<stop  offset="1" style="stop-color:#956700"/>
			</radialGradient>
			<polygon class="st34" points="158.94,933.9 181.06,917.01 163.68,936.98 162.1,953.87 170,969.23 185.8,975.38 206.33,978.45 
				222.13,964.63 211.07,981.52 184.22,986.13 162.1,973.84 155.78,955.41 			"/>
			
				<radialGradient id="SVGID_31_" cx="385.8088" cy="972.7946" r="51.5227" gradientTransform="matrix(-1.0284 0 0 1 574.6666 0)" gradientUnits="userSpaceOnUse">
				<stop  offset="0" style="stop-color:#FBB03B"/>
				<stop  offset="1" style="stop-color:#956700"/>
			</radialGradient>
			<polygon class="st35" points="125.46,927.2 127.35,973.84 157.36,1001.49 195.28,1013.78 236.35,995.35 196.86,1018.39 
				151.04,1013.78 119.45,976.91 			"/>
		</g>
		<linearGradient id="SVGID_32_" gradientUnits="userSpaceOnUse" x1="538.8002" y1="185.5043" x2="538.8002" y2="27.1231">
			<stop  offset="0.1877" style="stop-color:#1E243F"/>
			<stop  offset="1" style="stop-color:#315045"/>
		</linearGradient>
		<polygon class="st36" points="967.55,27.12 719.58,35.12 710.49,27.12 519.6,35.12 373.51,27.12 292.43,38.32 243.54,27.12 
			103.65,27.12 103.65,185.5 258.83,177.51 344.1,185.5 486.24,174.31 584.28,179.11 797.01,185.5 859.58,175.91 967.55,185.5 
			973.95,99.11 959.55,81.52 		"/>
	</g>
</g>
</svg>
