<?xml version="1.0" encoding="utf-8"?>
<!-- Generator: Adobe Illustrator 23.0.3, SVG Export Plug-In . SVG Version: 6.00 Build 0)  -->
<svg version="1.1" xmlns="http://www.w3.org/2000/svg" xmlns:xlink="http://www.w3.org/1999/xlink" x="0px" y="0px"
	 viewBox="0 0 64 64" style="enable-background:new 0 0 64 64;" xml:space="preserve">
<style type="text/css">
	.st0{display:none;}
	.st1{display:inline;fill:#3C8787;}
	.st2{display:inline;fill:url(#SVGID_1_);}
	.st3{display:inline;fill:#1F4F4D;}
	.st4{display:inline;fill:url(#SVGID_2_);}
	.st5{display:inline;fill:url(#SVGID_3_);}
	.st6{display:inline;fill:url(#SVGID_4_);}
	.st7{display:inline;fill:#99C1BF;}
	.st8{display:inline;fill:url(#SVGID_5_);}
	.st9{display:inline;fill:url(#SVGID_6_);}
	.st10{display:inline;fill:url(#SVGID_7_);}
	.st11{display:inline;fill:url(#SVGID_8_);}
	.st12{display:inline;fill:#79AFAE;}
	.st13{display:inline;fill:#104249;}
	.st14{display:inline;fill:#135156;}
	.st15{display:inline;fill:#00AFCF;}
	.st16{display:inline;}
	.st17{fill:#104249;}
	.st18{fill:#258C8E;}
	.st19{display:inline;fill:#175B60;}
	.st20{fill:#00AFCF;}
	.st21{fill:#297A72;}
	.st22{fill:#40BFBB;}
	.st23{fill:#256860;}
	.st24{display:inline;fill:#258C8E;}
	.st25{display:inline;fill:#40BFBB;}
	.st26{display:inline;fill:#CCAE2E;}
	.st27{display:inline;fill:#297A72;}
	.st28{fill:#175B60;}
	.st29{fill:#310900;}
	.st30{fill:#515624;}
	.st31{fill:#93812B;}
	.st32{fill:#E5C22E;}
	.st33{fill:#4C1D08;}
	.st34{fill:#331306;}
	.st35{fill:#0A0401;}
	.st36{fill:#6D290F;}
	.st37{fill:#FF0000;}
	.st38{fill:none;}
	.st39{display:inline;fill:#331306;}
	.st40{fill:#281006;}
	.st41{fill:#464344;}
	.st42{fill:#404040;}
	.st43{fill:url(#SVGID_9_);}
	.st44{fill:url(#SVGID_10_);}
	.st45{fill:url(#SVGID_11_);}
	.st46{fill:url(#SVGID_12_);}
	.st47{fill:#14242B;}
	.st48{fill:#011918;}
	.st49{fill:#280101;}
	.st50{fill:#000101;}
</style>
<g id="Layer_1">
</g>
<g id="Layer_3" class="st0">
	<polygon class="st1" points="59,58 6,58 9,23 56,23 	"/>
	<radialGradient id="SVGID_1_" cx="32.5" cy="19.5" r="18.9275" gradientUnits="userSpaceOnUse">
		<stop  offset="0" style="stop-color:#97F9F9"/>
		<stop  offset="0.1389" style="stop-color:#92F7F8"/>
		<stop  offset="0.3066" style="stop-color:#83EFF3"/>
		<stop  offset="0.4891" style="stop-color:#6BE3ED"/>
		<stop  offset="0.6821" style="stop-color:#49D3E3"/>
		<stop  offset="0.8813" style="stop-color:#1DBDD7"/>
		<stop  offset="1" style="stop-color:#00AFCF"/>
	</radialGradient>
	<polygon class="st2" points="55,34 10,34 13,5 52,5 	"/>
	<polygon class="st3" points="13,5 8.97,23.31 6,58 10,34 	"/>
	<polygon class="st3" points="52,5 56,23 59,58 55,34 	"/>
	<rect x="48.57" y="27.57" class="st1" width="6.43" height="6.43"/>
	<rect x="35.71" y="27.57" class="st1" width="6.43" height="6.43"/>
	<rect x="22.86" y="27.57" class="st1" width="6.43" height="6.43"/>
	<rect x="10" y="27.57" class="st1" width="6.43" height="6.43"/>
	<rect x="46.28" class="st1" width="5.86" height="5.71"/>
	<rect x="35.43" class="st1" width="5.86" height="5.71"/>
	<rect x="23.71" class="st1" width="5.86" height="5.71"/>
	<rect x="12" class="st1" width="5.86" height="5.71"/>
	<rect x="46.51" y="2.86" class="st1" width="5.89" height="5.89"/>
	<rect x="35.58" y="2.86" class="st1" width="5.89" height="5.89"/>
	<rect x="23.79" y="2.86" class="st1" width="5.89" height="5.89"/>
	<rect x="48.1" y="24.12" class="st1" width="6.24" height="6.24"/>
	<rect x="35.62" y="24.12" class="st1" width="6.24" height="6.24"/>
	<rect x="23.14" y="24.12" class="st1" width="6.24" height="6.24"/>
	
		<radialGradient id="SVGID_2_" cx="32.4043" cy="19.2553" r="19.4194" gradientTransform="matrix(1 0 0 0.7363 0 5.0782)" gradientUnits="userSpaceOnUse">
		<stop  offset="0" style="stop-color:#97F9F9"/>
		<stop  offset="0.1389" style="stop-color:#92F7F8"/>
		<stop  offset="0.3066" style="stop-color:#83EFF3"/>
		<stop  offset="0.4891" style="stop-color:#6BE3ED"/>
		<stop  offset="0.6821" style="stop-color:#49D3E3"/>
		<stop  offset="0.8813" style="stop-color:#1DBDD7"/>
		<stop  offset="1" style="stop-color:#00AFCF"/>
	</radialGradient>
	<polygon class="st4" points="48.1,24.12 54.34,24.12 55,27.57 48.57,27.57 	"/>
	<radialGradient id="SVGID_3_" cx="32.4043" cy="19.2553" r="22.2161" gradientUnits="userSpaceOnUse">
		<stop  offset="0" style="stop-color:#97F9F9"/>
		<stop  offset="0.1389" style="stop-color:#92F7F8"/>
		<stop  offset="0.3066" style="stop-color:#83EFF3"/>
		<stop  offset="0.4891" style="stop-color:#6BE3ED"/>
		<stop  offset="0.6821" style="stop-color:#49D3E3"/>
		<stop  offset="0.8813" style="stop-color:#1DBDD7"/>
		<stop  offset="1" style="stop-color:#00AFCF"/>
	</radialGradient>
	<polygon class="st5" points="35.62,24.12 41.86,24.12 42.14,27.57 35.71,27.57 	"/>
	<radialGradient id="SVGID_4_" cx="32.4043" cy="19.2553" r="22.2161" gradientUnits="userSpaceOnUse">
		<stop  offset="0" style="stop-color:#97F9F9"/>
		<stop  offset="0.1389" style="stop-color:#92F7F8"/>
		<stop  offset="0.3066" style="stop-color:#83EFF3"/>
		<stop  offset="0.4891" style="stop-color:#6BE3ED"/>
		<stop  offset="0.6821" style="stop-color:#49D3E3"/>
		<stop  offset="0.8813" style="stop-color:#1DBDD7"/>
		<stop  offset="1" style="stop-color:#00AFCF"/>
	</radialGradient>
	<polygon class="st6" points="23.14,24.12 29.47,24.12 29.29,27.57 22.86,27.57 	"/>
	<polygon class="st7" points="12,0 17.89,0 16.43,27.57 10,27.57 	"/>
	<polygon class="st3" points="17.86,0 16.43,27.57 16.43,34 17.89,5 	"/>
	<polygon class="st3" points="29.47,24.12 29.47,30.36 29.29,34.13 29.29,27.57 	"/>
	<rect x="10.57" y="19.69" class="st1" width="6.34" height="6.34"/>
	<radialGradient id="SVGID_5_" cx="32.4043" cy="19.2553" r="22.2161" gradientUnits="userSpaceOnUse">
		<stop  offset="0" style="stop-color:#97F9F9"/>
		<stop  offset="0.1389" style="stop-color:#92F7F8"/>
		<stop  offset="0.3066" style="stop-color:#83EFF3"/>
		<stop  offset="0.4891" style="stop-color:#6BE3ED"/>
		<stop  offset="0.6821" style="stop-color:#49D3E3"/>
		<stop  offset="0.8813" style="stop-color:#1DBDD7"/>
		<stop  offset="1" style="stop-color:#00AFCF"/>
	</radialGradient>
	<polygon class="st8" points="10.29,23.63 16.67,23.63 16.43,27.57 10,27.57 	"/>
	<rect x="11.14" y="11.82" class="st1" width="6.22" height="6.22"/>
	<radialGradient id="SVGID_6_" cx="32.4043" cy="19.2553" r="22.2161" gradientUnits="userSpaceOnUse">
		<stop  offset="0" style="stop-color:#97F9F9"/>
		<stop  offset="0.1389" style="stop-color:#92F7F8"/>
		<stop  offset="0.3066" style="stop-color:#83EFF3"/>
		<stop  offset="0.4891" style="stop-color:#6BE3ED"/>
		<stop  offset="0.6821" style="stop-color:#49D3E3"/>
		<stop  offset="0.8813" style="stop-color:#1DBDD7"/>
		<stop  offset="1" style="stop-color:#00AFCF"/>
	</radialGradient>
	<polygon class="st9" points="10.86,15.76 17.16,15.76 16.91,19.69 10.57,19.69 	"/>
	<radialGradient id="SVGID_7_" cx="32.4043" cy="19.2553" r="22.2161" gradientUnits="userSpaceOnUse">
		<stop  offset="0" style="stop-color:#97F9F9"/>
		<stop  offset="0.1389" style="stop-color:#92F7F8"/>
		<stop  offset="0.3066" style="stop-color:#83EFF3"/>
		<stop  offset="0.4891" style="stop-color:#6BE3ED"/>
		<stop  offset="0.6821" style="stop-color:#49D3E3"/>
		<stop  offset="0.8813" style="stop-color:#1DBDD7"/>
		<stop  offset="1" style="stop-color:#00AFCF"/>
	</radialGradient>
	<polygon class="st10" points="11.43,7.88 17.48,7.88 17.38,11.82 11.14,11.82 	"/>
	<polygon class="st1" points="11.7,3.94 17.62,3.94 17.48,7.88 11.43,7.88 	"/>
	<radialGradient id="SVGID_8_" cx="32.4043" cy="19.2553" r="22.2161" gradientUnits="userSpaceOnUse">
		<stop  offset="0" style="stop-color:#97F9F9"/>
		<stop  offset="0.1389" style="stop-color:#92F7F8"/>
		<stop  offset="0.3066" style="stop-color:#83EFF3"/>
		<stop  offset="0.4891" style="stop-color:#6BE3ED"/>
		<stop  offset="0.6821" style="stop-color:#49D3E3"/>
		<stop  offset="0.8813" style="stop-color:#1DBDD7"/>
		<stop  offset="1" style="stop-color:#00AFCF"/>
	</radialGradient>
	<polygon class="st11" points="12.02,0 17.86,0 17.62,3.94 11.7,3.94 	"/>
</g>
<g id="Layer_2" class="st0">
	<polygon class="st1" points="59,58 6,58 9,23 56,23 	"/>
	<polygon class="st12" points="55,34 10,34 13,5 52,5 	"/>
	<polygon class="st3" points="13,5 8.97,23.31 6,58 10,34 	"/>
	<polygon class="st3" points="52,5 56,23 59,58 55,34 	"/>
	<polygon class="st3" points="53.28,17.36 54.19,26.22 57.3,39.5 56.65,31.5 	"/>
</g>
<g id="Layer_11" class="st0">
	<rect x="16.79" y="0" class="st13" width="30.43" height="32"/>
	<rect x="24.39" y="-16" transform="matrix(6.123234e-17 -1 1 6.123234e-17 16 48)" class="st13" width="15.21" height="64"/>
	<rect x="16.79" y="32" class="st14" width="30.43" height="32"/>
	<polygon class="st15" points="64,8.39 47.21,0 47.21,8.39 	"/>
	<polygon class="st15" points="0,8.39 16.79,0 16.79,8.39 	"/>
	<polygon class="st15" points="16.79,32 0,23.61 16.79,23.61 	"/>
	<polygon class="st15" points="47.21,32 64,23.61 47.21,23.61 	"/>
	<g class="st16">
		<polygon class="st17" points="0,23.61 0,55.5 16.79,63.89 16.79,32 		"/>
		<polygon class="st17" points="16.79,64 16.79,63.89 0,64 		"/>
	</g>
	<g class="st16">
		<polygon class="st18" points="64,23.61 47.21,32 47.21,63.89 64,55.5 		"/>
	</g>
	<rect x="16.79" y="2.1" class="st19" width="30.43" height="4.2"/>
	<rect x="47.21" y="8.39" class="st19" width="16.79" height="4.2"/>
	<rect x="0" y="8.39" class="st19" width="16.79" height="4.2"/>
	<rect x="16.79" y="0" class="st15" width="30.43" height="2.1"/>
	
		<rect x="-5.38" y="13.78" transform="matrix(-1.836970e-16 1 -1 -1.836970e-16 18.2234 13.7766)" class="st15" width="15.21" height="4.45"/>
	
		<rect x="54.17" y="13.78" transform="matrix(-1.836970e-16 1 -1 -1.836970e-16 77.7766 -45.7766)" class="st15" width="15.21" height="4.45"/>
	<rect x="16.79" y="29.9" class="st15" width="30.43" height="2.1"/>
	<g class="st16">
		<path class="st17" d="M54.72,49.82l0.01-1.63c0-0.75-0.8-1.21-1.45-0.85l-1.19,0.67c-0.31,0.17-0.5,0.5-0.51,0.86l-0.01,1.68
			c0,0.76,0.83,1.23,1.48,0.83l1.19-0.72C54.53,50.48,54.71,50.16,54.72,49.82z"/>
		<path class="st20" d="M55.47,49.38l0.01-1.63c0-0.75-0.8-1.21-1.45-0.85l-1.19,0.67c-0.31,0.17-0.5,0.5-0.51,0.86l-0.01,1.68
			c0,0.76,0.83,1.23,1.48,0.83l1.19-0.72C55.29,50.04,55.47,49.72,55.47,49.38z"/>
		<path class="st18" d="M55.33,49.61l0.01-1.63c0-0.75-0.8-1.21-1.45-0.85L52.7,47.8c-0.31,0.17-0.5,0.5-0.51,0.86l-0.01,1.68
			c0,0.76,0.83,1.23,1.48,0.83l1.19-0.72C55.15,50.27,55.33,49.96,55.33,49.61z"/>
		<path class="st17" d="M58.95,48.29v-3.08c0-0.27-0.29-0.44-0.52-0.31l-0.27,0.15c-0.75,0.42-1.21,1.21-1.21,2.06v1.36
			c0,1.13-0.6,2.17-1.57,2.74l-4.16,2.42c-0.99,0.58-1.6,1.63-1.6,2.78v0c0,0.78,0.85,1.26,1.52,0.87l7.13-4.24
			c1.18-0.7,1.91-1.97,1.91-3.35v-0.7c0-0.26-0.28-0.42-0.5-0.29l0,0C59.35,48.89,58.95,48.66,58.95,48.29z"/>
		<path class="st20" d="M59.79,48.06v-3.08c0-0.27-0.29-0.44-0.52-0.31L59,44.82c-0.75,0.42-1.21,1.21-1.21,2.06v1.36
			c0,1.13-0.6,2.17-1.57,2.74l-4.16,2.42c-0.99,0.58-1.6,1.63-1.6,2.78v0c0,0.78,0.85,1.26,1.52,0.87l7.13-4.24
			c1.18-0.7,1.91-1.97,1.91-3.35v-0.7c0-0.26-0.28-0.42-0.5-0.29h0C60.2,48.66,59.79,48.43,59.79,48.06z"/>
		<path class="st18" d="M59.43,48.49v-3.08c0-0.27-0.29-0.44-0.52-0.31l-0.27,0.15c-0.75,0.42-1.21,1.21-1.21,2.06v1.36
			c0,1.13-0.6,2.17-1.57,2.74l-4.16,2.42c-0.99,0.58-1.6,1.63-1.6,2.78v0c0,0.78,0.85,1.26,1.52,0.87l7.13-4.24
			c1.18-0.7,1.91-1.97,1.91-3.35v-0.7c0-0.26-0.28-0.42-0.5-0.29l0,0C59.83,49.1,59.43,48.86,59.43,48.49z"/>
		<path class="st17" d="M58.88,39.62v-6.1c0-0.93-1-1.52-1.81-1.06l-3.29,1.84c-2.16,1.21-3.5,3.49-3.5,5.96v3.46
			c0,1.52,1.66,2.46,2.97,1.68l3.6-2.17C58.11,42.46,58.88,41.1,58.88,39.62z"/>
		<path class="st20" d="M59.75,38.76v-6.1c0-0.93-1-1.52-1.81-1.06l-3.29,1.84c-2.16,1.21-3.5,3.49-3.5,5.96v3.46
			c0,1.52,1.66,2.46,2.97,1.68l3.6-2.17C58.97,41.6,59.75,40.23,59.75,38.76z"/>
		<path class="st18" d="M59.39,39.77V33.9c0-0.9-0.96-1.46-1.74-1.02l-3.17,1.77c-2.08,1.16-3.37,3.36-3.37,5.74v3.33
			c0,1.47,1.6,2.37,2.86,1.61l3.47-2.09C58.65,42.5,59.39,41.19,59.39,39.77z"/>
		<g>
			<polygon class="st21" points="53.65,44.44 56.42,39.39 55.51,39.16 52.74,40.66 52.74,44.06 			"/>
			<polygon class="st22" points="56.42,42.78 56.42,39.39 53.65,40.93 53.65,44.44 			"/>
		</g>
		<g>
			<polygon class="st21" points="57.91,53.07 59.94,49.37 59.27,49.2 57.24,50.3 57.24,52.79 			"/>
			<polygon class="st22" points="59.94,51.85 59.94,49.37 57.91,50.5 57.91,53.07 			"/>
		</g>
		<polygon class="st20" points="53.65,40.93 56.42,39.39 55.51,39.16 52.74,40.66 		"/>
		<polygon class="st20" points="57.91,50.5 59.94,49.37 59.27,49.2 57.24,50.3 		"/>
		<g>
			<polygon class="st21" points="51.66,56.77 52.92,54.46 52.51,54.35 51.24,55.04 51.24,56.6 			"/>
			<polygon class="st22" points="52.92,56.01 52.92,54.46 51.66,55.16 51.66,56.77 			"/>
		</g>
		<polygon class="st20" points="51.66,55.16 52.92,54.46 52.51,54.35 51.24,55.04 		"/>
		<g>
			<polygon class="st21" points="57.47,41.85 59.2,38.7 58.63,38.55 56.91,39.49 56.91,41.61 			"/>
			<polygon class="st22" points="59.2,40.81 59.2,38.7 57.47,39.66 57.47,41.85 			"/>
		</g>
		<polygon class="st20" points="57.47,39.66 59.2,38.7 58.63,38.55 56.91,39.49 		"/>
		<g>
			<polygon class="st21" points="53.48,50.37 54.74,48.06 54.33,47.95 53.06,48.64 53.06,50.2 			"/>
			<polygon class="st22" points="54.74,49.61 54.74,48.06 53.48,48.76 53.48,50.37 			"/>
		</g>
		<polygon class="st20" points="53.48,48.76 54.74,48.06 54.33,47.95 53.06,48.64 		"/>
		<g>
			<polygon class="st21" points="55.29,39.1 58.05,34.05 57.15,33.82 54.38,35.32 54.38,38.73 			"/>
			<polygon class="st22" points="58.05,37.44 58.05,34.05 55.29,35.59 55.29,39.1 			"/>
		</g>
	</g>
	<g class="st16">
		<path class="st18" d="M4.65,39.15v-1.13c0-1.13,1.22-1.85,2.21-1.3l0.57,0.32c0.43,0.24,0.69,0.69,0.69,1.17v1.96
			c0,0.73-0.8,1.18-1.42,0.8l-1.53-0.92C4.85,39.86,4.65,39.52,4.65,39.15z"/>
		<path class="st17" d="M12.34,51.4l-1.47-0.82c-0.46-0.25-0.74-0.74-0.74-1.26l0,0l-0.12-0.07c-1.71-0.95-2.77,1.08-2.77-0.88v-2.5
			c0-0.44-0.24-0.85-0.63-1.07l-1.25-0.7c-0.86-0.48-1.92,0.14-1.92,1.13v7.24c0,0.62,0.32,1.19,0.85,1.51l2.95,1.77l4.77,2.83
			c0.76,0.46,1.73-0.09,1.73-0.98v-3.81C13.75,52.8,13.21,51.88,12.34,51.4z"/>
		<path class="st18" d="M13.01,50.71l-1.5-0.84c-0.47-0.26-0.76-0.75-0.76-1.29l0,0l-0.12-0.07c-1.75-0.98-2.83,1.01-2.83-0.99
			v-2.55c0-0.45-0.25-0.87-0.64-1.09l-1.28-0.71C5,42.68,3.91,43.31,3.91,44.32v7.49c0,0.63,0.33,1.21,0.87,1.54l3.01,1.82
			l4.88,2.89c0.78,0.47,1.77-0.09,1.77-1v-3.9C14.45,52.14,13.9,51.21,13.01,50.71z"/>
		<path class="st23" d="M12.71,50.92l-1.47-0.82c-0.46-0.25-0.74-0.74-0.74-1.26l0,0l-0.12-0.07c-1.71-0.95-2.77,1.08-2.77-0.88
			v-2.5c0-0.44-0.24-0.85-0.63-1.07l-1.25-0.7c-0.86-0.48-1.92,0.14-1.92,1.13V52c0,0.62,0.32,1.19,0.85,1.51l2.95,1.77l4.77,2.83
			c0.76,0.46,1.73-0.09,1.73-0.98v-3.81C14.11,52.32,13.57,51.41,12.71,50.92z"/>
		<path class="st17" d="M4.14,39.64v-1.13c0-1.13,1.22-1.85,2.21-1.3l0.57,0.32c0.43,0.24,0.69,0.69,0.69,1.17v1.96
			c0,0.73-0.8,1.18-1.42,0.8l-1.53-0.92C4.33,40.36,4.14,40.01,4.14,39.64z"/>
		<g>
			<polygon class="st17" points="4.9,50.03 5.32,49.87 7.36,51.01 7.36,53.59 6.94,53.75 			"/>
			<polygon class="st18" points="4.9,52.53 4.9,50.03 6.94,51.17 6.94,53.75 			"/>
			<polygon class="st20" points="6.94,51.17 4.9,50.03 5.32,49.87 7.36,51.01 			"/>
		</g>
		<g>
			<polygon class="st17" points="9.15,54.16 9.39,54.06 10.58,54.72 10.58,56.23 10.33,56.32 			"/>
			<polygon class="st18" points="9.15,55.61 9.15,54.16 10.33,54.82 10.33,56.32 			"/>
			<polygon class="st20" points="10.33,54.82 9.15,54.16 9.39,54.06 10.58,54.72 			"/>
		</g>
		<g>
			<polygon class="st17" points="8.68,50.65 9.02,50.51 10.71,51.46 10.71,53.6 10.36,53.73 			"/>
			<polygon class="st18" points="8.68,52.72 8.68,50.65 10.36,51.59 10.36,53.73 			"/>
			<polygon class="st20" points="10.36,51.59 8.68,50.65 9.02,50.51 10.71,51.46 			"/>
		</g>
		<g>
			<polygon class="st17" points="5.29,44.94 5.53,44.84 6.72,45.51 6.72,47.02 6.48,47.11 			"/>
			<polygon class="st18" points="5.29,46.4 5.29,44.94 6.48,45.6 6.48,47.11 			"/>
			<polygon class="st20" points="6.48,45.6 5.29,44.94 5.53,44.84 6.72,45.51 			"/>
		</g>
		<g>
			<polygon class="st17" points="4.06,46.77 4.37,46.65 5.88,47.49 5.88,49.41 5.57,49.53 			"/>
			<polygon class="st18" points="4.06,48.62 4.06,46.77 5.57,47.61 5.57,49.53 			"/>
			<polygon class="st20" points="5.57,47.61 4.06,46.77 4.37,46.65 5.88,47.49 			"/>
		</g>
		<path class="st23" d="M4.43,39.41v-1.13c0-1.13,1.22-1.85,2.21-1.3l0.57,0.32c0.43,0.24,0.69,0.69,0.69,1.17v1.96
			c0,0.73-0.8,1.18-1.42,0.8l-1.53-0.92C4.62,40.13,4.43,39.78,4.43,39.41z"/>
		<g>
			<polygon class="st17" points="5.15,38.04 5.4,37.95 6.59,38.62 6.59,40.13 6.35,40.22 			"/>
			<polygon class="st18" points="5.15,39.51 5.15,38.04 6.35,38.71 6.35,40.22 			"/>
			<polygon class="st20" points="6.35,38.71 5.15,38.04 5.4,37.95 6.59,38.62 			"/>
		</g>
		<path class="st17" d="M8.7,34.24l-2.56-1.49c-0.22-0.13-0.5,0.03-0.51,0.29l0,0.29c-0.01,0.82,0.42,1.59,1.13,2.01L7.89,36
			c0.94,0.54,1.52,1.55,1.52,2.63l0.01,4.63c0,1.1,0.59,2.12,1.54,2.67h0c0.65,0.38,1.46-0.1,1.46-0.85l-0.08-7.98
			c-0.01-1.32-0.72-2.54-1.87-3.2l-0.58-0.34c-0.21-0.12-0.48,0.03-0.48,0.28l0,0C9.4,34.2,9.01,34.42,8.7,34.24z"/>
		<path class="st18" d="M9.03,33.61l-2.56-1.49c-0.22-0.13-0.5,0.03-0.51,0.29l0,0.29c-0.01,0.82,0.42,1.59,1.13,2.01l1.13,0.66
			c0.94,0.54,1.52,1.55,1.52,2.63l0.01,4.63c0,1.1,0.59,2.12,1.54,2.67h0c0.65,0.38,1.46-0.1,1.46-0.85l-0.08-7.98
			c-0.01-1.32-0.72-2.54-1.87-3.2l-0.58-0.34c-0.21-0.12-0.48,0.03-0.48,0.28v0C9.73,33.57,9.34,33.79,9.03,33.61z"/>
		<path class="st23" d="M8.92,34.04l-2.56-1.49c-0.22-0.13-0.5,0.03-0.51,0.29l0,0.29c-0.01,0.82,0.42,1.59,1.13,2.01l1.13,0.66
			c0.94,0.54,1.52,1.55,1.52,2.63l0.01,4.63c0,1.1,0.59,2.12,1.54,2.67l0,0c0.65,0.38,1.46-0.1,1.46-0.85l-0.08-7.98
			c-0.01-1.32-0.72-2.54-1.87-3.2l-0.58-0.34c-0.21-0.12-0.48,0.03-0.48,0.28l0,0C9.61,33.99,9.23,34.22,8.92,34.04z"/>
		<g>
			<polygon class="st17" points="9.33,34.46 11.44,37.94 11.9,37.47 11.96,35.24 9.89,34.04 			"/>
			<polygon class="st18" points="9.37,36.74 11.44,37.94 11.48,35.7 9.33,34.46 			"/>
		</g>
		<polygon class="st20" points="11.96,35.24 9.89,34.04 9.33,34.46 11.48,35.7 		"/>
		<g>
			<polygon class="st17" points="10.39,42.6 11.71,44.77 12,44.48 12.04,43.09 10.74,42.34 			"/>
			<polygon class="st18" points="10.42,44.02 11.71,44.77 11.73,43.38 10.39,42.6 			"/>
		</g>
		<polygon class="st20" points="12.04,43.09 10.74,42.34 10.39,42.6 11.73,43.38 		"/>
		<g>
			<polygon class="st17" points="6.57,33.46 7.64,35.22 7.87,34.98 7.9,33.86 6.85,33.25 			"/>
			<polygon class="st18" points="6.59,34.61 7.64,35.22 7.66,34.09 6.57,33.46 			"/>
		</g>
		<polygon class="st20" points="7.9,33.86 6.85,33.25 6.57,33.46 7.66,34.09 		"/>
	</g>
	<rect x="25.77" y="50.93" class="st24" width="12.47" height="13.02"/>
	<circle class="st24" cx="32" cy="50.93" r="6.23"/>
	<rect x="27.32" y="50.93" class="st13" width="9.36" height="13.02"/>
	<circle class="st13" cx="32" cy="50.93" r="4.68"/>
	<rect x="16.79" y="32" class="st24" width="30.43" height="2.1"/>
	
		<rect x="31.21" y="48" transform="matrix(-1.836970e-16 1 -1 -1.836970e-16 95.2128 2.8856)" class="st24" width="29.9" height="2.1"/>
	
		<rect x="2.89" y="48" transform="matrix(-1.836970e-16 1 -1 -1.836970e-16 66.8856 31.2128)" class="st24" width="29.9" height="2.1"/>
	<polygon class="st25" points="47.21,64 47.21,34.1 48.92,33.2 48.92,63.1 	"/>
	<polygon class="st25" points="47.21,34.1 64,25.7 64,23.61 47.21,32 	"/>
	<polygon class="st25" points="62.3,56.51 62.3,26.61 64,25.7 64,55.61 	"/>
	<polygon class="st19" points="16.91,64 16.91,34.1 15.19,33.2 15.19,63.1 	"/>
	<polygon class="st19" points="16.91,34.1 0,25.7 0,23.61 16.91,32 	"/>
	<polygon class="st19" points="1.72,56.51 1.72,26.61 0,25.7 0,55.61 	"/>
	<rect x="-92.32" y="-64" class="st13" width="30.43" height="32"/>
	
		<rect x="-84.71" y="-80" transform="matrix(6.123234e-17 -1 1 6.123234e-17 -29.1028 -125.1028)" class="st13" width="15.21" height="64"/>
	<rect x="-92.32" y="32" class="st14" width="30.43" height="32"/>
	<polygon class="st24" points="-83.34,50.93 -83.34,63.95 -81.78,63.95 -81.78,63.17 -72.42,63.17 -72.42,63.95 -70.87,63.95 
		-70.87,50.93 	"/>
	<polygon class="st15" points="-45.1,-55.61 -61.89,-64 -61.89,-55.61 	"/>
	<polygon class="st15" points="-109.1,-55.61 -92.32,-64 -92.32,-55.61 	"/>
	<polygon class="st15" points="-92.32,-32 -109.1,-40.39 -92.32,-40.39 	"/>
	<polygon class="st15" points="-61.89,-32 -45.1,-40.39 -61.89,-40.39 	"/>
	<g class="st16">
		<polygon class="st17" points="-109.1,23.61 -109.1,55.5 -92.32,63.89 -92.32,32 		"/>
	</g>
	<g class="st16">
		<polygon class="st18" points="-45.1,23.61 -61.89,32 -61.89,63.89 -45.1,55.5 		"/>
	</g>
	<rect x="-92.32" y="-61.9" class="st19" width="30.43" height="4.2"/>
	<rect x="-61.89" y="-55.61" class="st19" width="16.79" height="4.2"/>
	<rect x="-109.1" y="-55.61" class="st19" width="16.79" height="4.2"/>
	<rect x="-92.32" y="-64" class="st15" width="30.43" height="2.1"/>
	
		<rect x="-114.49" y="-50.22" transform="matrix(-1.836970e-16 1 -1 -1.836970e-16 -154.8794 58.8794)" class="st15" width="15.21" height="4.45"/>
	
		<rect x="-54.93" y="-50.22" transform="matrix(-1.836970e-16 1 -1 -1.836970e-16 -95.3262 -0.6738)" class="st15" width="15.21" height="4.45"/>
	<rect x="-92.32" y="-34.1" class="st15" width="30.43" height="2.1"/>
	<g class="st16">
		<path class="st17" d="M-53.81,49.29l0.01-1.63c0-0.75-0.8-1.21-1.45-0.85l-1.19,0.67c-0.31,0.17-0.5,0.5-0.51,0.86l-0.01,1.68
			c0,0.76,0.83,1.23,1.48,0.83l1.19-0.72C-53.99,49.95-53.81,49.63-53.81,49.29z"/>
		<path class="st20" d="M-53.06,48.85l0.01-1.63c0-0.75-0.8-1.21-1.45-0.85l-1.19,0.67c-0.31,0.17-0.5,0.5-0.51,0.86l-0.01,1.68
			c0,0.76,0.83,1.23,1.48,0.83l1.19-0.72C-53.24,49.51-53.06,49.19-53.06,48.85z"/>
		<path class="st18" d="M-53.19,49.08l0.01-1.63c0-0.75-0.8-1.21-1.45-0.85l-1.19,0.67c-0.31,0.17-0.5,0.5-0.51,0.86l-0.01,1.68
			c0,0.76,0.83,1.23,1.48,0.83l1.19-0.72C-53.38,49.74-53.2,49.42-53.19,49.08z"/>
		<path class="st17" d="M-49.57,47.75v-3.08c0-0.27-0.29-0.44-0.52-0.31l-0.27,0.15c-0.75,0.42-1.21,1.21-1.21,2.06v1.36
			c0,1.13-0.6,2.17-1.57,2.74l-4.16,2.42c-0.99,0.58-1.6,1.63-1.6,2.78v0c0,0.78,0.85,1.26,1.52,0.87l7.13-4.24
			c1.18-0.7,1.91-1.97,1.91-3.35v-0.7c0-0.26-0.28-0.42-0.5-0.29h0C-49.17,48.36-49.57,48.13-49.57,47.75z"/>
		<path class="st20" d="M-48.73,47.53v-3.08c0-0.27-0.29-0.44-0.52-0.31l-0.27,0.15c-0.75,0.42-1.21,1.21-1.21,2.06v1.36
			c0,1.13-0.6,2.17-1.57,2.74l-4.16,2.42c-0.99,0.58-1.6,1.63-1.6,2.78v0c0,0.78,0.85,1.26,1.52,0.87l7.13-4.24
			c1.18-0.7,1.91-1.97,1.91-3.35v-0.7c0-0.26-0.28-0.42-0.5-0.29h0C-48.33,48.13-48.73,47.9-48.73,47.53z"/>
		<path class="st18" d="M-49.1,47.96v-3.08c0-0.27-0.29-0.44-0.52-0.31l-0.27,0.15c-0.75,0.42-1.21,1.21-1.21,2.06v1.36
			c0,1.13-0.6,2.17-1.57,2.74l-4.16,2.42c-0.99,0.58-1.6,1.63-1.6,2.78v0c0,0.78,0.85,1.26,1.52,0.87l7.13-4.24
			c1.18-0.7,1.91-1.97,1.91-3.35v-0.7c0-0.26-0.28-0.42-0.5-0.29l0,0C-48.69,48.56-49.1,48.33-49.1,47.96z"/>
		<path class="st17" d="M-49.64,39.09v-6.1c0-0.93-1-1.52-1.81-1.06l-3.29,1.84c-2.16,1.21-3.5,3.49-3.5,5.96v3.46
			c0,1.52,1.66,2.46,2.97,1.68l3.6-2.17C-50.42,41.93-49.64,40.56-49.64,39.09z"/>
		<path class="st20" d="M-48.78,38.22v-6.1c0-0.93-1-1.52-1.81-1.06l-3.29,1.84c-2.16,1.21-3.5,3.49-3.5,5.96v3.46
			c0,1.52,1.66,2.46,2.97,1.68l3.6-2.17C-49.55,41.06-48.78,39.7-48.78,38.22z"/>
		<path class="st18" d="M-49.13,39.23v-5.87c0-0.9-0.96-1.46-1.74-1.02l-3.17,1.77c-2.08,1.16-3.37,3.36-3.37,5.74v3.33
			c0,1.47,1.6,2.37,2.86,1.61l3.47-2.09C-49.88,41.97-49.13,40.65-49.13,39.23z"/>
		<g>
			<polygon class="st21" points="-54.87,43.91 -52.11,38.86 -53.01,38.63 -55.78,40.13 -55.78,43.53 			"/>
			<polygon class="st22" points="-52.11,42.24 -52.11,38.86 -54.87,40.4 -54.87,43.91 			"/>
		</g>
		<g>
			<polygon class="st21" points="-50.61,52.54 -48.59,48.84 -49.25,48.67 -51.28,49.77 -51.28,52.26 			"/>
			<polygon class="st22" points="-48.59,51.32 -48.59,48.84 -50.61,49.97 -50.61,52.54 			"/>
		</g>
		<polygon class="st20" points="-54.87,40.4 -52.11,38.86 -53.01,38.63 -55.78,40.13 		"/>
		<polygon class="st20" points="-50.61,49.97 -48.59,48.84 -49.25,48.67 -51.28,49.77 		"/>
		<g>
			<polygon class="st21" points="-56.87,56.24 -55.6,53.93 -56.02,53.82 -57.28,54.51 -57.28,56.07 			"/>
			<polygon class="st22" points="-55.6,55.48 -55.6,53.93 -56.87,54.63 -56.87,56.24 			"/>
		</g>
		<polygon class="st20" points="-56.87,54.63 -55.6,53.93 -56.02,53.82 -57.28,54.51 		"/>
		<g>
			<polygon class="st21" points="-51.05,41.32 -49.33,38.16 -49.89,38.02 -51.62,38.96 -51.62,41.08 			"/>
			<polygon class="st22" points="-49.33,40.28 -49.33,38.16 -51.05,39.13 -51.05,41.32 			"/>
		</g>
		<polygon class="st20" points="-51.05,39.13 -49.33,38.16 -49.89,38.02 -51.62,38.96 		"/>
		<g>
			<polygon class="st21" points="-55.05,49.84 -53.78,47.53 -54.2,47.42 -55.46,48.11 -55.46,49.66 			"/>
			<polygon class="st22" points="-53.78,49.08 -53.78,47.53 -55.05,48.23 -55.05,49.84 			"/>
		</g>
		<polygon class="st20" points="-55.05,48.23 -53.78,47.53 -54.2,47.42 -55.46,48.11 		"/>
		<g>
			<polygon class="st21" points="-53.23,38.57 -50.47,33.52 -51.38,33.29 -54.15,34.79 -54.15,38.19 			"/>
			<polygon class="st22" points="-50.47,36.91 -50.47,33.52 -53.23,35.06 -53.23,38.57 			"/>
		</g>
	</g>
	<g class="st16">
		<path class="st18" d="M-105.02,38.96v-1.13c0-1.13,1.22-1.85,2.21-1.3l0.57,0.32c0.43,0.24,0.69,0.69,0.69,1.17v1.96
			c0,0.73-0.8,1.18-1.42,0.8l-1.53-0.92C-104.83,39.68-105.02,39.33-105.02,38.96z"/>
		<path class="st17" d="M-97.33,51.21l-1.47-0.82c-0.46-0.25-0.74-0.74-0.74-1.26v0l-0.12-0.07c-1.71-0.95-2.77,1.08-2.77-0.88v-2.5
			c0-0.44-0.24-0.85-0.63-1.07l-1.25-0.7c-0.86-0.48-1.92,0.14-1.92,1.13v7.24c0,0.62,0.32,1.19,0.85,1.51l2.95,1.77l4.77,2.83
			c0.76,0.46,1.73-0.09,1.73-0.98v-3.81C-95.92,52.61-96.46,51.69-97.33,51.21z"/>
		<path class="st18" d="M-96.66,50.52l-1.5-0.84c-0.47-0.26-0.76-0.75-0.76-1.29l0,0l-0.12-0.07c-1.75-0.98-2.83,1.01-2.83-0.99
			v-2.55c0-0.45-0.25-0.87-0.64-1.09l-1.28-0.71c-0.88-0.49-1.96,0.15-1.96,1.15v7.49c0,0.63,0.33,1.21,0.87,1.54l3.01,1.82
			l4.88,2.89c0.78,0.47,1.77-0.09,1.77-1v-3.9C-95.22,51.96-95.77,51.02-96.66,50.52z"/>
		<path class="st23" d="M-96.97,50.74l-1.47-0.82c-0.46-0.25-0.74-0.74-0.74-1.26l0,0l-0.12-0.07c-1.71-0.95-2.77,1.08-2.77-0.88
			v-2.5c0-0.44-0.24-0.85-0.63-1.07l-1.25-0.7c-0.86-0.48-1.92,0.14-1.92,1.13v7.24c0,0.62,0.32,1.19,0.85,1.51l2.95,1.77l4.77,2.83
			c0.76,0.46,1.73-0.09,1.73-0.98v-3.81C-95.56,52.14-96.1,51.22-96.97,50.74z"/>
		<path class="st17" d="M-105.54,39.45v-1.13c0-1.13,1.22-1.85,2.21-1.3l0.57,0.32c0.43,0.24,0.69,0.69,0.69,1.17v1.96
			c0,0.73-0.8,1.18-1.42,0.8l-1.53-0.92C-105.34,40.17-105.54,39.83-105.54,39.45z"/>
		<g>
			<polygon class="st17" points="-104.77,49.84 -104.35,49.68 -102.32,50.82 -102.32,53.41 -102.74,53.57 			"/>
			<polygon class="st18" points="-104.77,52.34 -104.77,49.84 -102.74,50.98 -102.74,53.57 			"/>
			<polygon class="st20" points="-102.74,50.98 -104.77,49.84 -104.35,49.68 -102.32,50.82 			"/>
		</g>
		<g>
			<polygon class="st17" points="-100.52,53.97 -100.28,53.88 -99.1,54.54 -99.1,56.04 -99.34,56.13 			"/>
			<polygon class="st18" points="-100.52,55.42 -100.52,53.97 -99.34,54.63 -99.34,56.13 			"/>
			<polygon class="st20" points="-99.34,54.63 -100.52,53.97 -100.28,53.88 -99.1,54.54 			"/>
		</g>
		<g>
			<polygon class="st17" points="-101,50.46 -100.65,50.33 -98.96,51.27 -98.96,53.41 -99.31,53.55 			"/>
			<polygon class="st18" points="-101,52.53 -101,50.46 -99.31,51.4 -99.31,53.55 			"/>
			<polygon class="st20" points="-99.31,51.4 -101,50.46 -100.65,50.33 -98.96,51.27 			"/>
		</g>
		<g>
			<polygon class="st17" points="-104.39,44.75 -104.14,44.65 -102.95,45.32 -102.95,46.83 -103.19,46.93 			"/>
			<polygon class="st18" points="-104.39,46.21 -104.39,44.75 -103.19,45.41 -103.19,46.93 			"/>
			<polygon class="st20" points="-103.19,45.41 -104.39,44.75 -104.14,44.65 -102.95,45.32 			"/>
		</g>
		<g>
			<polygon class="st17" points="-105.61,46.58 -105.3,46.46 -103.79,47.31 -103.79,49.23 -104.1,49.35 			"/>
			<polygon class="st18" points="-105.61,48.44 -105.61,46.58 -104.1,47.43 -104.1,49.35 			"/>
			<polygon class="st20" points="-104.1,47.43 -105.61,46.58 -105.3,46.46 -103.79,47.31 			"/>
		</g>
		<path class="st23" d="M-105.25,39.22V38.1c0-1.13,1.22-1.85,2.21-1.3l0.57,0.32c0.43,0.24,0.69,0.69,0.69,1.17v1.96
			c0,0.73-0.8,1.18-1.42,0.8l-1.53-0.92C-105.05,39.94-105.25,39.59-105.25,39.22z"/>
		<g>
			<polygon class="st17" points="-104.52,37.86 -104.27,37.76 -103.08,38.43 -103.08,39.94 -103.33,40.04 			"/>
			<polygon class="st18" points="-104.52,39.32 -104.52,37.86 -103.33,38.52 -103.33,40.04 			"/>
			<polygon class="st20" points="-103.33,38.52 -104.52,37.86 -104.27,37.76 -103.08,38.43 			"/>
		</g>
		<path class="st17" d="M-100.97,34.06l-2.56-1.49c-0.22-0.13-0.5,0.03-0.51,0.29l0,0.29c-0.01,0.82,0.42,1.59,1.13,2.01l1.13,0.66
			c0.94,0.54,1.52,1.55,1.52,2.63l0.01,4.63c0,1.1,0.59,2.12,1.54,2.67v0c0.65,0.38,1.46-0.1,1.46-0.85l-0.08-7.98
			c-0.01-1.32-0.72-2.54-1.87-3.2l-0.58-0.34c-0.21-0.12-0.48,0.03-0.48,0.28l0,0C-100.27,34.01-100.66,34.24-100.97,34.06z"/>
		<path class="st18" d="M-100.64,33.42l-2.56-1.49c-0.22-0.13-0.5,0.03-0.51,0.29l0,0.29c-0.01,0.82,0.42,1.59,1.13,2.01l1.13,0.66
			c0.94,0.54,1.52,1.55,1.52,2.63l0.01,4.63c0,1.1,0.59,2.12,1.54,2.67h0c0.65,0.38,1.46-0.1,1.46-0.85l-0.08-7.98
			c-0.01-1.32-0.72-2.54-1.87-3.2l-0.58-0.34c-0.21-0.12-0.48,0.03-0.48,0.28v0C-99.94,33.38-100.33,33.6-100.64,33.42z"/>
		<path class="st23" d="M-100.76,33.85l-2.56-1.49c-0.22-0.13-0.5,0.03-0.51,0.29l0,0.29c-0.01,0.82,0.42,1.59,1.13,2.01l1.13,0.66
			c0.94,0.54,1.52,1.55,1.52,2.63l0.01,4.63c0,1.1,0.59,2.12,1.54,2.67v0c0.65,0.38,1.46-0.1,1.46-0.85l-0.08-7.98
			c-0.01-1.32-0.72-2.54-1.87-3.2l-0.58-0.34c-0.21-0.12-0.48,0.03-0.48,0.28l0,0C-100.06,33.81-100.45,34.03-100.76,33.85z"/>
		<g>
			<polygon class="st17" points="-100.34,34.27 -98.23,37.75 -97.77,37.28 -97.71,35.05 -99.79,33.85 			"/>
			<polygon class="st18" points="-100.3,36.55 -98.23,37.75 -98.2,35.52 -100.34,34.27 			"/>
		</g>
		<polygon class="st20" points="-97.71,35.05 -99.78,33.85 -100.34,34.27 -98.2,35.52 		"/>
		<g>
			<polygon class="st17" points="-99.28,42.42 -97.97,44.58 -97.68,44.29 -97.64,42.9 -98.93,42.15 			"/>
			<polygon class="st18" points="-99.26,43.84 -97.97,44.58 -97.94,43.19 -99.28,42.42 			"/>
		</g>
		<polygon class="st20" points="-97.64,42.9 -98.93,42.15 -99.28,42.42 -97.94,43.19 		"/>
		<g>
			<polygon class="st17" points="-103.1,33.27 -102.04,35.03 -101.8,34.79 -101.77,33.67 -102.82,33.06 			"/>
			<polygon class="st18" points="-103.08,34.42 -102.04,35.03 -102.02,33.9 -103.1,33.27 			"/>
		</g>
		<polygon class="st20" points="-101.77,33.67 -102.82,33.06 -103.1,33.27 -102.02,33.9 		"/>
	</g>
	<circle class="st15" cx="-77.1" cy="50.93" r="7.14"/>
	<circle class="st24" cx="-77.1" cy="50.93" r="6.23"/>
	<rect x="-81.78" y="50.93" class="st13" width="9.36" height="13.02"/>
	<circle class="st13" cx="-77.1" cy="50.93" r="4.68"/>
	<rect x="-92.32" y="32" class="st24" width="30.43" height="2.1"/>
	
		<rect x="-77.89" y="48" transform="matrix(-1.836970e-16 1 -1 -1.836970e-16 -13.89 111.9884)" class="st24" width="29.9" height="2.1"/>
	
		<rect x="-106.22" y="48" transform="matrix(-1.836970e-16 1 -1 -1.836970e-16 -42.2172 140.3156)" class="st24" width="29.9" height="2.1"/>
	<polygon class="st25" points="-61.89,64 -61.89,34.1 -60.19,33.2 -60.19,63.1 	"/>
	<polygon class="st25" points="-61.89,34.1 -45.1,25.7 -45.1,23.61 -61.89,32 	"/>
	<polygon class="st25" points="-46.81,56.51 -46.81,26.61 -45.1,25.7 -45.1,55.61 	"/>
	<polygon class="st19" points="-92.2,64 -92.2,34.1 -93.91,33.2 -93.91,63.1 	"/>
	<polygon class="st19" points="-92.2,34.1 -109.1,25.7 -109.1,23.61 -92.2,32 	"/>
	<polygon class="st19" points="-107.39,56.51 -107.39,26.61 -109.1,25.7 -109.1,55.61 	"/>
	<rect x="-92.32" y="-32" class="st14" width="30.43" height="32"/>
	<g class="st16">
		<polygon class="st17" points="-109.1,-40.39 -109.1,-8.5 -92.32,-0.11 -92.32,-32 		"/>
		<polygon class="st17" points="-92.32,0 -92.32,-0.11 -109.1,0 		"/>
	</g>
	<g class="st16">
		<polygon class="st18" points="-45.1,-40.39 -61.89,-32 -61.89,-0.11 -45.1,-8.5 		"/>
	</g>
	<g class="st16">
		<path class="st17" d="M-53.81-14.71l0.01-1.63c0-0.75-0.8-1.21-1.45-0.85l-1.19,0.67c-0.31,0.17-0.5,0.5-0.51,0.86l-0.01,1.68
			c0,0.76,0.83,1.23,1.48,0.83l1.19-0.72C-53.99-14.05-53.81-14.37-53.81-14.71z"/>
		<path class="st20" d="M-53.06-15.15l0.01-1.63c0-0.75-0.8-1.21-1.45-0.85l-1.19,0.67c-0.31,0.17-0.5,0.5-0.51,0.86l-0.01,1.68
			c0,0.76,0.83,1.23,1.48,0.83l1.19-0.72C-53.24-14.49-53.06-14.81-53.06-15.15z"/>
		<path class="st18" d="M-53.19-14.92l0.01-1.63c0-0.75-0.8-1.21-1.45-0.85l-1.19,0.67c-0.31,0.17-0.5,0.5-0.51,0.86l-0.01,1.68
			c0,0.76,0.83,1.23,1.48,0.83l1.19-0.72C-53.38-14.26-53.2-14.58-53.19-14.92z"/>
		<path class="st17" d="M-49.57-16.25v-3.08c0-0.27-0.29-0.44-0.52-0.31l-0.27,0.15c-0.75,0.42-1.21,1.21-1.21,2.06v1.36
			c0,1.13-0.6,2.17-1.57,2.74l-4.16,2.42c-0.99,0.58-1.6,1.63-1.6,2.78v0c0,0.78,0.85,1.26,1.52,0.87l7.13-4.24
			c1.18-0.7,1.91-1.97,1.91-3.35v-0.7c0-0.26-0.28-0.42-0.5-0.29l0,0C-49.17-15.64-49.57-15.87-49.57-16.25z"/>
		<path class="st20" d="M-48.73-16.47v-3.08c0-0.27-0.29-0.44-0.52-0.31l-0.27,0.15c-0.75,0.42-1.21,1.21-1.21,2.06v1.36
			c0,1.13-0.6,2.17-1.57,2.74l-4.16,2.42c-0.99,0.58-1.6,1.63-1.6,2.78v0c0,0.78,0.85,1.26,1.52,0.87l7.13-4.24
			c1.18-0.7,1.91-1.97,1.91-3.35v-0.7c0-0.26-0.28-0.42-0.5-0.29h0C-48.33-15.87-48.73-16.1-48.73-16.47z"/>
		<path class="st18" d="M-49.1-16.04v-3.08c0-0.27-0.29-0.44-0.52-0.31l-0.27,0.15c-0.75,0.42-1.21,1.21-1.21,2.06v1.36
			c0,1.13-0.6,2.17-1.57,2.74l-4.16,2.42c-0.99,0.58-1.6,1.63-1.6,2.78v0c0,0.78,0.85,1.26,1.52,0.87l7.13-4.24
			c1.18-0.7,1.91-1.97,1.91-3.35v-0.7c0-0.26-0.28-0.42-0.5-0.29v0C-48.69-15.44-49.1-15.67-49.1-16.04z"/>
		<path class="st17" d="M-49.64-24.91v-6.1c0-0.93-1-1.52-1.81-1.06l-3.29,1.84c-2.16,1.21-3.5,3.49-3.5,5.96v3.46
			c0,1.52,1.66,2.46,2.97,1.68l3.6-2.17C-50.42-22.07-49.64-23.44-49.64-24.91z"/>
		<path class="st20" d="M-48.78-25.78v-6.1c0-0.93-1-1.52-1.81-1.06l-3.29,1.84c-2.16,1.21-3.5,3.49-3.5,5.96v3.46
			c0,1.52,1.66,2.46,2.97,1.68l3.6-2.17C-49.55-22.94-48.78-24.3-48.78-25.78z"/>
		<path class="st18" d="M-49.13-24.77v-5.87c0-0.9-0.96-1.46-1.74-1.02l-3.17,1.77c-2.08,1.16-3.37,3.36-3.37,5.74v3.33
			c0,1.47,1.6,2.37,2.86,1.61l3.47-2.09C-49.88-22.03-49.13-23.35-49.13-24.77z"/>
		<g>
			<polygon class="st21" points="-54.87,-20.09 -52.11,-25.14 -53.01,-25.37 -55.78,-23.87 -55.78,-20.47 			"/>
			<polygon class="st22" points="-52.11,-21.76 -52.11,-25.14 -54.87,-23.6 -54.87,-20.09 			"/>
		</g>
		<g>
			<polygon class="st21" points="-50.61,-11.46 -48.59,-15.16 -49.25,-15.33 -51.28,-14.23 -51.28,-11.74 			"/>
			<polygon class="st22" points="-48.59,-12.68 -48.59,-15.16 -50.61,-14.03 -50.61,-11.46 			"/>
		</g>
		<polygon class="st20" points="-54.87,-23.6 -52.11,-25.14 -53.01,-25.37 -55.78,-23.87 		"/>
		<polygon class="st20" points="-50.61,-14.03 -48.59,-15.16 -49.25,-15.33 -51.28,-14.23 		"/>
		<g>
			<polygon class="st21" points="-56.87,-7.76 -55.6,-10.07 -56.02,-10.18 -57.28,-9.49 -57.28,-7.93 			"/>
			<polygon class="st22" points="-55.6,-8.52 -55.6,-10.07 -56.87,-9.37 -56.87,-7.76 			"/>
		</g>
		<polygon class="st20" points="-56.87,-9.37 -55.6,-10.07 -56.02,-10.18 -57.28,-9.49 		"/>
		<g>
			<polygon class="st21" points="-51.05,-22.68 -49.33,-25.84 -49.89,-25.98 -51.62,-25.04 -51.62,-22.92 			"/>
			<polygon class="st22" points="-49.33,-23.72 -49.33,-25.84 -51.05,-24.87 -51.05,-22.68 			"/>
		</g>
		<polygon class="st20" points="-51.05,-24.87 -49.33,-25.84 -49.89,-25.98 -51.62,-25.04 		"/>
		<g>
			<polygon class="st21" points="-55.05,-14.16 -53.78,-16.47 -54.2,-16.58 -55.46,-15.89 -55.46,-14.34 			"/>
			<polygon class="st22" points="-53.78,-14.92 -53.78,-16.47 -55.05,-15.77 -55.05,-14.16 			"/>
		</g>
		<polygon class="st20" points="-55.05,-15.77 -53.78,-16.47 -54.2,-16.58 -55.46,-15.89 		"/>
		<g>
			<polygon class="st21" points="-53.23,-25.43 -50.47,-30.48 -51.38,-30.71 -54.15,-29.21 -54.15,-25.81 			"/>
			<polygon class="st22" points="-50.47,-27.09 -50.47,-30.48 -53.23,-28.94 -53.23,-25.43 			"/>
		</g>
	</g>
	<g class="st16">
		<path class="st18" d="M-105.02-25.04v-1.13c0-1.13,1.22-1.85,2.21-1.3l0.57,0.32c0.43,0.24,0.69,0.69,0.69,1.17v1.96
			c0,0.73-0.8,1.18-1.42,0.8l-1.53-0.92C-104.83-24.32-105.02-24.67-105.02-25.04z"/>
		<path class="st17" d="M-97.33-12.79l-1.47-0.82c-0.46-0.25-0.74-0.74-0.74-1.26v0l-0.12-0.07c-1.71-0.95-2.77,1.08-2.77-0.88v-2.5
			c0-0.44-0.24-0.85-0.63-1.07l-1.25-0.7c-0.86-0.48-1.92,0.14-1.92,1.13v7.24c0,0.62,0.32,1.19,0.85,1.51l2.95,1.77l4.77,2.83
			c0.76,0.46,1.73-0.09,1.73-0.98v-3.81C-95.92-11.39-96.46-12.31-97.33-12.79z"/>
		<path class="st18" d="M-96.66-13.48l-1.5-0.84c-0.47-0.26-0.76-0.75-0.76-1.29v0l-0.12-0.07c-1.75-0.98-2.83,1.01-2.83-0.99v-2.55
			c0-0.45-0.25-0.87-0.64-1.09l-1.28-0.71c-0.88-0.49-1.96,0.15-1.96,1.15v7.49c0,0.63,0.33,1.21,0.87,1.54l3.01,1.82L-97-6.13
			c0.78,0.47,1.77-0.09,1.77-1v-3.9C-95.22-12.04-95.77-12.98-96.66-13.48z"/>
		<path class="st23" d="M-96.97-13.26l-1.47-0.82c-0.46-0.25-0.74-0.74-0.74-1.26v0l-0.12-0.07c-1.71-0.95-2.77,1.08-2.77-0.88v-2.5
			c0-0.44-0.24-0.85-0.63-1.07l-1.25-0.7c-0.86-0.48-1.92,0.14-1.92,1.13v7.24c0,0.62,0.32,1.19,0.85,1.51l2.95,1.77l4.77,2.83
			c0.76,0.46,1.73-0.09,1.73-0.98v-3.81C-95.56-11.86-96.1-12.78-96.97-13.26z"/>
		<path class="st17" d="M-105.54-24.55v-1.13c0-1.13,1.22-1.85,2.21-1.3l0.57,0.32c0.43,0.24,0.69,0.69,0.69,1.17v1.96
			c0,0.73-0.8,1.18-1.42,0.8l-1.53-0.92C-105.34-23.83-105.54-24.17-105.54-24.55z"/>
		<g>
			<polygon class="st17" points="-104.77,-14.16 -104.35,-14.32 -102.32,-13.18 -102.32,-10.59 -102.74,-10.43 			"/>
			<polygon class="st18" points="-104.77,-11.66 -104.77,-14.16 -102.74,-13.02 -102.74,-10.43 			"/>
			<polygon class="st20" points="-102.74,-13.02 -104.77,-14.16 -104.35,-14.32 -102.32,-13.18 			"/>
		</g>
		<g>
			<polygon class="st17" points="-100.52,-10.03 -100.28,-10.12 -99.1,-9.46 -99.1,-7.96 -99.34,-7.87 			"/>
			<polygon class="st18" points="-100.52,-8.58 -100.52,-10.03 -99.34,-9.37 -99.34,-7.87 			"/>
			<polygon class="st20" points="-99.34,-9.37 -100.52,-10.03 -100.28,-10.12 -99.1,-9.46 			"/>
		</g>
		<g>
			<polygon class="st17" points="-101,-13.54 -100.65,-13.67 -98.96,-12.73 -98.96,-10.59 -99.31,-10.45 			"/>
			<polygon class="st18" points="-101,-11.47 -101,-13.54 -99.31,-12.6 -99.31,-10.45 			"/>
			<polygon class="st20" points="-99.31,-12.6 -101,-13.54 -100.65,-13.67 -98.96,-12.73 			"/>
		</g>
		<g>
			<polygon class="st17" points="-104.39,-19.25 -104.14,-19.35 -102.95,-18.68 -102.95,-17.17 -103.19,-17.07 			"/>
			<polygon class="st18" points="-104.39,-17.79 -104.39,-19.25 -103.19,-18.59 -103.19,-17.07 			"/>
			<polygon class="st20" points="-103.19,-18.59 -104.39,-19.25 -104.14,-19.35 -102.95,-18.68 			"/>
		</g>
		<g>
			<polygon class="st17" points="-105.61,-17.42 -105.3,-17.54 -103.79,-16.69 -103.79,-14.77 -104.1,-14.65 			"/>
			<polygon class="st18" points="-105.61,-15.56 -105.61,-17.42 -104.1,-16.57 -104.1,-14.65 			"/>
			<polygon class="st20" points="-104.1,-16.57 -105.61,-17.42 -105.3,-17.54 -103.79,-16.69 			"/>
		</g>
		<path class="st23" d="M-105.25-24.78v-1.13c0-1.13,1.22-1.85,2.21-1.3l0.57,0.32c0.43,0.24,0.69,0.69,0.69,1.17v1.96
			c0,0.73-0.8,1.18-1.42,0.8l-1.53-0.92C-105.05-24.06-105.25-24.41-105.25-24.78z"/>
		<g>
			<polygon class="st17" points="-104.52,-26.14 -104.27,-26.24 -103.08,-25.57 -103.08,-24.06 -103.33,-23.96 			"/>
			<polygon class="st18" points="-104.52,-24.68 -104.52,-26.14 -103.33,-25.48 -103.33,-23.96 			"/>
			<polygon class="st20" points="-103.33,-25.48 -104.52,-26.14 -104.27,-26.24 -103.08,-25.57 			"/>
		</g>
		<path class="st17" d="M-100.97-29.94l-2.56-1.49c-0.22-0.13-0.5,0.03-0.51,0.29l0,0.29c-0.01,0.82,0.42,1.59,1.13,2.01l1.13,0.66
			c0.94,0.54,1.52,1.55,1.52,2.63l0.01,4.63c0,1.1,0.59,2.12,1.54,2.67v0c0.65,0.38,1.46-0.1,1.46-0.85l-0.08-7.98
			c-0.01-1.32-0.72-2.54-1.87-3.2l-0.58-0.34c-0.21-0.12-0.48,0.03-0.48,0.28l0,0C-100.27-29.99-100.66-29.76-100.97-29.94z"/>
		<path class="st18" d="M-100.64-30.58l-2.56-1.49c-0.22-0.13-0.5,0.03-0.51,0.29l0,0.29c-0.01,0.82,0.42,1.59,1.13,2.01l1.13,0.66
			c0.94,0.54,1.52,1.55,1.52,2.63l0.01,4.63c0,1.1,0.59,2.12,1.54,2.67l0,0c0.65,0.38,1.46-0.1,1.46-0.85l-0.08-7.98
			c-0.01-1.32-0.72-2.54-1.87-3.2l-0.58-0.34c-0.21-0.12-0.48,0.03-0.48,0.28v0C-99.94-30.62-100.33-30.4-100.64-30.58z"/>
		<path class="st23" d="M-100.76-30.15l-2.56-1.49c-0.22-0.13-0.5,0.03-0.51,0.29l0,0.29c-0.01,0.82,0.42,1.59,1.13,2.01l1.13,0.66
			c0.94,0.54,1.52,1.55,1.52,2.63l0.01,4.63c0,1.1,0.59,2.12,1.54,2.67v0c0.65,0.38,1.46-0.1,1.46-0.85l-0.08-7.98
			c-0.01-1.32-0.72-2.54-1.87-3.2l-0.58-0.34c-0.21-0.12-0.48,0.03-0.48,0.28v0C-100.06-30.19-100.45-29.97-100.76-30.15z"/>
		<g>
			<polygon class="st17" points="-100.34,-29.73 -98.23,-26.25 -97.77,-26.72 -97.71,-28.95 -99.79,-30.15 			"/>
			<polygon class="st18" points="-100.3,-27.45 -98.23,-26.25 -98.2,-28.48 -100.34,-29.73 			"/>
		</g>
		<polygon class="st20" points="-97.71,-28.95 -99.78,-30.15 -100.34,-29.73 -98.2,-28.48 		"/>
		<g>
			<polygon class="st17" points="-99.28,-21.58 -97.97,-19.42 -97.68,-19.71 -97.64,-21.1 -98.93,-21.85 			"/>
			<polygon class="st18" points="-99.26,-20.16 -97.97,-19.42 -97.94,-20.81 -99.28,-21.58 			"/>
		</g>
		<polygon class="st20" points="-97.64,-21.1 -98.93,-21.85 -99.28,-21.58 -97.94,-20.81 		"/>
		<g>
			<polygon class="st17" points="-103.1,-30.73 -102.04,-28.97 -101.8,-29.21 -101.77,-30.33 -102.82,-30.94 			"/>
			<polygon class="st18" points="-103.08,-29.58 -102.04,-28.97 -102.02,-30.1 -103.1,-30.73 			"/>
		</g>
		<polygon class="st20" points="-101.77,-30.33 -102.82,-30.94 -103.1,-30.73 -102.02,-30.1 		"/>
	</g>
	<rect x="-92.32" y="-32" class="st24" width="30.43" height="2.1"/>
	
		<rect x="-77.89" y="-16" transform="matrix(-1.836970e-16 1 -1 -1.836970e-16 -77.89 47.9884)" class="st24" width="29.9" height="2.1"/>
	
		<rect x="-106.22" y="-16" transform="matrix(-1.836970e-16 1 -1 -1.836970e-16 -106.2172 76.3156)" class="st24" width="29.9" height="2.1"/>
	<polygon class="st25" points="-61.89,0 -61.89,-29.9 -60.19,-30.8 -60.19,-0.9 	"/>
	<polygon class="st25" points="-61.89,-29.9 -45.1,-38.3 -45.1,-40.39 -61.89,-32 	"/>
	<polygon class="st25" points="-46.81,-7.49 -46.81,-37.39 -45.1,-38.3 -45.1,-8.39 	"/>
	<polygon class="st19" points="-92.2,0 -92.2,-29.9 -93.91,-30.8 -93.91,-0.9 	"/>
	<polygon class="st19" points="-92.2,-29.9 -109.1,-38.3 -109.1,-40.39 -92.2,-32 	"/>
	<polygon class="st19" points="-107.39,-7.49 -107.39,-37.39 -109.1,-38.3 -109.1,-8.39 	"/>
	<rect x="-92.32" y="0" class="st14" width="30.43" height="32"/>
	<g class="st16">
		<polygon class="st17" points="-109.1,-8.39 -109.1,23.5 -92.32,31.89 -92.32,0 		"/>
	</g>
	<g class="st16">
		<polygon class="st18" points="-45.1,-8.39 -61.89,0 -61.89,31.89 -45.1,23.5 		"/>
	</g>
	<g class="st16">
		<path class="st17" d="M-53.81,17.29l0.01-1.63c0-0.75-0.8-1.21-1.45-0.85l-1.19,0.67c-0.31,0.17-0.5,0.5-0.51,0.86l-0.01,1.68
			c0,0.76,0.83,1.23,1.48,0.83l1.19-0.72C-53.99,17.95-53.81,17.63-53.81,17.29z"/>
		<path class="st20" d="M-53.06,16.85l0.01-1.63c0-0.75-0.8-1.21-1.45-0.85l-1.19,0.67c-0.31,0.17-0.5,0.5-0.51,0.86l-0.01,1.68
			c0,0.76,0.83,1.23,1.48,0.83l1.19-0.72C-53.24,17.51-53.06,17.19-53.06,16.85z"/>
		<path class="st18" d="M-53.19,17.08l0.01-1.63c0-0.75-0.8-1.21-1.45-0.85l-1.19,0.67c-0.31,0.17-0.5,0.5-0.51,0.86l-0.01,1.68
			c0,0.76,0.83,1.23,1.48,0.83l1.19-0.72C-53.38,17.74-53.2,17.42-53.19,17.08z"/>
		<path class="st17" d="M-49.57,15.75v-3.08c0-0.27-0.29-0.44-0.52-0.31l-0.27,0.15c-0.75,0.42-1.21,1.21-1.21,2.06v1.36
			c0,1.13-0.6,2.17-1.57,2.74l-4.16,2.42c-0.99,0.58-1.6,1.63-1.6,2.78v0c0,0.78,0.85,1.26,1.52,0.87l7.13-4.24
			c1.18-0.7,1.91-1.97,1.91-3.35v-0.7c0-0.26-0.28-0.42-0.5-0.29h0C-49.17,16.36-49.57,16.13-49.57,15.75z"/>
		<path class="st20" d="M-48.73,15.53v-3.08c0-0.27-0.29-0.44-0.52-0.31l-0.27,0.15c-0.75,0.42-1.21,1.21-1.21,2.06v1.36
			c0,1.13-0.6,2.17-1.57,2.74l-4.16,2.42c-0.99,0.58-1.6,1.63-1.6,2.78v0c0,0.78,0.85,1.26,1.52,0.87l7.13-4.24
			c1.18-0.7,1.91-1.97,1.91-3.35v-0.7c0-0.26-0.28-0.42-0.5-0.29l0,0C-48.33,16.13-48.73,15.9-48.73,15.53z"/>
		<path class="st18" d="M-49.1,15.96v-3.08c0-0.27-0.29-0.44-0.52-0.31l-0.27,0.15c-0.75,0.42-1.21,1.21-1.21,2.06v1.36
			c0,1.13-0.6,2.17-1.57,2.74l-4.16,2.42c-0.99,0.58-1.6,1.63-1.6,2.78v0c0,0.78,0.85,1.26,1.52,0.87l7.13-4.24
			c1.18-0.7,1.91-1.97,1.91-3.35v-0.7c0-0.26-0.28-0.42-0.5-0.29v0C-48.69,16.56-49.1,16.33-49.1,15.96z"/>
		<path class="st17" d="M-49.64,7.09v-6.1c0-0.93-1-1.52-1.81-1.06l-3.29,1.84c-2.16,1.21-3.5,3.49-3.5,5.96v3.46
			c0,1.52,1.66,2.46,2.97,1.68l3.6-2.17C-50.42,9.93-49.64,8.56-49.64,7.09z"/>
		<path class="st20" d="M-48.78,6.22v-6.1c0-0.93-1-1.52-1.81-1.06l-3.29,1.84c-2.16,1.21-3.5,3.49-3.5,5.96v3.46
			c0,1.52,1.66,2.46,2.97,1.68l3.6-2.17C-49.55,9.06-48.78,7.7-48.78,6.22z"/>
		<path class="st18" d="M-49.13,7.23V1.37c0-0.9-0.96-1.46-1.74-1.02l-3.17,1.77c-2.08,1.16-3.37,3.36-3.37,5.74v3.33
			c0,1.47,1.6,2.37,2.86,1.61l3.47-2.09C-49.88,9.97-49.13,8.65-49.13,7.23z"/>
		<g>
			<polygon class="st21" points="-54.87,11.91 -52.11,6.86 -53.01,6.63 -55.78,8.13 -55.78,11.53 			"/>
			<polygon class="st22" points="-52.11,10.24 -52.11,6.86 -54.87,8.4 -54.87,11.91 			"/>
		</g>
		<g>
			<polygon class="st21" points="-50.61,20.54 -48.59,16.84 -49.25,16.67 -51.28,17.77 -51.28,20.26 			"/>
			<polygon class="st22" points="-48.59,19.32 -48.59,16.84 -50.61,17.97 -50.61,20.54 			"/>
		</g>
		<polygon class="st20" points="-54.87,8.4 -52.11,6.86 -53.01,6.63 -55.78,8.13 		"/>
		<polygon class="st20" points="-50.61,17.97 -48.59,16.84 -49.25,16.67 -51.28,17.77 		"/>
		<g>
			<polygon class="st21" points="-56.87,24.24 -55.6,21.93 -56.02,21.82 -57.28,22.51 -57.28,24.07 			"/>
			<polygon class="st22" points="-55.6,23.48 -55.6,21.93 -56.87,22.63 -56.87,24.24 			"/>
		</g>
		<polygon class="st20" points="-56.87,22.63 -55.6,21.93 -56.02,21.82 -57.28,22.51 		"/>
		<g>
			<polygon class="st21" points="-51.05,9.32 -49.33,6.16 -49.89,6.02 -51.62,6.96 -51.62,9.08 			"/>
			<polygon class="st22" points="-49.33,8.28 -49.33,6.16 -51.05,7.13 -51.05,9.32 			"/>
		</g>
		<polygon class="st20" points="-51.05,7.13 -49.33,6.16 -49.89,6.02 -51.62,6.96 		"/>
		<g>
			<polygon class="st21" points="-55.05,17.84 -53.78,15.53 -54.2,15.42 -55.46,16.11 -55.46,17.66 			"/>
			<polygon class="st22" points="-53.78,17.08 -53.78,15.53 -55.05,16.23 -55.05,17.84 			"/>
		</g>
		<polygon class="st20" points="-55.05,16.23 -53.78,15.53 -54.2,15.42 -55.46,16.11 		"/>
		<g>
			<polygon class="st21" points="-53.23,6.57 -50.47,1.52 -51.38,1.29 -54.15,2.79 -54.15,6.19 			"/>
			<polygon class="st22" points="-50.47,4.91 -50.47,1.52 -53.23,3.06 -53.23,6.57 			"/>
		</g>
	</g>
	<g class="st16">
		<path class="st18" d="M-105.02,6.96V5.84c0-1.13,1.22-1.85,2.21-1.3l0.57,0.32c0.43,0.24,0.69,0.69,0.69,1.17v1.96
			c0,0.73-0.8,1.18-1.42,0.8l-1.53-0.92C-104.83,7.68-105.02,7.33-105.02,6.96z"/>
		<path class="st17" d="M-97.33,19.21l-1.47-0.82c-0.46-0.25-0.74-0.74-0.74-1.26l0,0l-0.12-0.07c-1.71-0.95-2.77,1.08-2.77-0.88
			v-2.5c0-0.44-0.24-0.85-0.63-1.07l-1.25-0.7c-0.86-0.48-1.92,0.14-1.92,1.13v7.24c0,0.62,0.32,1.19,0.85,1.51l2.95,1.77l4.77,2.83
			c0.76,0.46,1.73-0.09,1.73-0.98v-3.81C-95.92,20.61-96.46,19.69-97.33,19.21z"/>
		<path class="st18" d="M-96.66,18.52l-1.5-0.84c-0.47-0.26-0.76-0.75-0.76-1.29v0l-0.12-0.07c-1.75-0.98-2.83,1.01-2.83-0.99v-2.55
			c0-0.45-0.25-0.87-0.64-1.09l-1.28-0.71c-0.88-0.49-1.96,0.15-1.96,1.15v7.49c0,0.63,0.33,1.21,0.87,1.54l3.01,1.82l4.88,2.89
			c0.78,0.47,1.77-0.09,1.77-1v-3.9C-95.22,19.96-95.77,19.02-96.66,18.52z"/>
		<path class="st23" d="M-96.97,18.74l-1.47-0.82c-0.46-0.25-0.74-0.74-0.74-1.26v0l-0.12-0.07c-1.71-0.95-2.77,1.08-2.77-0.88v-2.5
			c0-0.44-0.24-0.85-0.63-1.07l-1.25-0.7c-0.86-0.48-1.92,0.14-1.92,1.13v7.24c0,0.62,0.32,1.19,0.85,1.51l2.95,1.77l4.77,2.83
			c0.76,0.46,1.73-0.09,1.73-0.98v-3.81C-95.56,20.14-96.1,19.22-96.97,18.74z"/>
		<path class="st17" d="M-105.54,7.45V6.33c0-1.13,1.22-1.85,2.21-1.3l0.57,0.32c0.43,0.24,0.69,0.69,0.69,1.17v1.96
			c0,0.73-0.8,1.18-1.42,0.8l-1.53-0.92C-105.34,8.17-105.54,7.83-105.54,7.45z"/>
		<g>
			<polygon class="st17" points="-104.77,17.84 -104.35,17.68 -102.32,18.82 -102.32,21.41 -102.74,21.57 			"/>
			<polygon class="st18" points="-104.77,20.34 -104.77,17.84 -102.74,18.98 -102.74,21.57 			"/>
			<polygon class="st20" points="-102.74,18.98 -104.77,17.84 -104.35,17.68 -102.32,18.82 			"/>
		</g>
		<g>
			<polygon class="st17" points="-100.52,21.97 -100.28,21.88 -99.1,22.54 -99.1,24.04 -99.34,24.13 			"/>
			<polygon class="st18" points="-100.52,23.42 -100.52,21.97 -99.34,22.63 -99.34,24.13 			"/>
			<polygon class="st20" points="-99.34,22.63 -100.52,21.97 -100.28,21.88 -99.1,22.54 			"/>
		</g>
		<g>
			<polygon class="st17" points="-101,18.46 -100.65,18.33 -98.96,19.27 -98.96,21.41 -99.31,21.55 			"/>
			<polygon class="st18" points="-101,20.53 -101,18.46 -99.31,19.4 -99.31,21.55 			"/>
			<polygon class="st20" points="-99.31,19.4 -101,18.46 -100.65,18.33 -98.96,19.27 			"/>
		</g>
		<g>
			<polygon class="st17" points="-104.39,12.75 -104.14,12.65 -102.95,13.32 -102.95,14.83 -103.19,14.93 			"/>
			<polygon class="st18" points="-104.39,14.21 -104.39,12.75 -103.19,13.41 -103.19,14.93 			"/>
			<polygon class="st20" points="-103.19,13.41 -104.39,12.75 -104.14,12.65 -102.95,13.32 			"/>
		</g>
		<g>
			<polygon class="st17" points="-105.61,14.58 -105.3,14.46 -103.79,15.31 -103.79,17.23 -104.1,17.35 			"/>
			<polygon class="st18" points="-105.61,16.44 -105.61,14.58 -104.1,15.43 -104.1,17.35 			"/>
			<polygon class="st20" points="-104.1,15.43 -105.61,14.58 -105.3,14.46 -103.79,15.31 			"/>
		</g>
		<path class="st23" d="M-105.25,7.22V6.1c0-1.13,1.22-1.85,2.21-1.3l0.57,0.32c0.43,0.24,0.69,0.69,0.69,1.17v1.96
			c0,0.73-0.8,1.18-1.42,0.8l-1.53-0.92C-105.05,7.94-105.25,7.59-105.25,7.22z"/>
		<g>
			<polygon class="st17" points="-104.52,5.86 -104.27,5.76 -103.08,6.43 -103.08,7.94 -103.33,8.04 			"/>
			<polygon class="st18" points="-104.52,7.32 -104.52,5.86 -103.33,6.52 -103.33,8.04 			"/>
			<polygon class="st20" points="-103.33,6.52 -104.52,5.86 -104.27,5.76 -103.08,6.43 			"/>
		</g>
		<path class="st17" d="M-100.97,2.06l-2.56-1.49c-0.22-0.13-0.5,0.03-0.51,0.29l0,0.29c-0.01,0.82,0.42,1.59,1.13,2.01l1.13,0.66
			c0.94,0.54,1.52,1.55,1.52,2.63l0.01,4.63c0,1.1,0.59,2.12,1.54,2.67v0c0.65,0.38,1.46-0.1,1.46-0.85l-0.08-7.98
			c-0.01-1.32-0.72-2.54-1.87-3.2l-0.58-0.34c-0.21-0.12-0.48,0.03-0.48,0.28v0C-100.27,2.01-100.66,2.24-100.97,2.06z"/>
		<path class="st18" d="M-100.64,1.42l-2.56-1.49c-0.22-0.13-0.5,0.03-0.51,0.29l0,0.29c-0.01,0.82,0.42,1.59,1.13,2.01l1.13,0.66
			c0.94,0.54,1.52,1.55,1.52,2.63l0.01,4.63c0,1.1,0.59,2.12,1.54,2.67l0,0c0.65,0.38,1.46-0.1,1.46-0.85l-0.08-7.98
			c-0.01-1.32-0.72-2.54-1.87-3.2l-0.58-0.34c-0.21-0.12-0.48,0.03-0.48,0.28v0C-99.94,1.38-100.33,1.6-100.64,1.42z"/>
		<path class="st23" d="M-100.76,1.85l-2.56-1.49c-0.22-0.13-0.5,0.03-0.51,0.29l0,0.29c-0.01,0.82,0.42,1.59,1.13,2.01l1.13,0.66
			c0.94,0.54,1.52,1.55,1.52,2.63l0.01,4.63c0,1.1,0.59,2.12,1.54,2.67v0c0.65,0.38,1.46-0.1,1.46-0.85l-0.08-7.98
			c-0.01-1.32-0.72-2.54-1.87-3.2l-0.58-0.34c-0.21-0.12-0.48,0.03-0.48,0.28v0C-100.06,1.81-100.45,2.03-100.76,1.85z"/>
		<g>
			<polygon class="st17" points="-100.34,2.27 -98.23,5.75 -97.77,5.28 -97.71,3.05 -99.79,1.85 			"/>
			<polygon class="st18" points="-100.3,4.55 -98.23,5.75 -98.2,3.52 -100.34,2.27 			"/>
		</g>
		<polygon class="st20" points="-97.71,3.05 -99.78,1.85 -100.34,2.27 -98.2,3.52 		"/>
		<g>
			<polygon class="st17" points="-99.28,10.42 -97.97,12.58 -97.68,12.29 -97.64,10.9 -98.93,10.15 			"/>
			<polygon class="st18" points="-99.26,11.84 -97.97,12.58 -97.94,11.19 -99.28,10.42 			"/>
		</g>
		<polygon class="st20" points="-97.64,10.9 -98.93,10.15 -99.28,10.42 -97.94,11.19 		"/>
		<g>
			<polygon class="st17" points="-103.1,1.27 -102.04,3.03 -101.8,2.79 -101.77,1.67 -102.82,1.06 			"/>
			<polygon class="st18" points="-103.08,2.42 -102.04,3.03 -102.02,1.9 -103.1,1.27 			"/>
		</g>
		<polygon class="st20" points="-101.77,1.67 -102.82,1.06 -103.1,1.27 -102.02,1.9 		"/>
	</g>
	<rect x="-92.32" y="0" class="st24" width="30.43" height="2.1"/>
	
		<rect x="-77.89" y="16" transform="matrix(-1.836970e-16 1 -1 -1.836970e-16 -45.89 79.9884)" class="st24" width="29.9" height="2.1"/>
	
		<rect x="-106.22" y="16" transform="matrix(-1.836970e-16 1 -1 -1.836970e-16 -74.2172 108.3156)" class="st24" width="29.9" height="2.1"/>
	<polygon class="st25" points="-61.89,32 -61.89,2.1 -60.19,1.2 -60.19,31.1 	"/>
	<polygon class="st25" points="-61.89,2.1 -45.1,-6.3 -45.1,-8.39 -61.89,0 	"/>
	<polygon class="st25" points="-46.81,24.51 -46.81,-5.39 -45.1,-6.3 -45.1,23.61 	"/>
	<polygon class="st19" points="-92.2,32 -92.2,2.1 -93.91,1.2 -93.91,31.1 	"/>
	<polygon class="st19" points="-92.2,2.1 -109.1,-6.3 -109.1,-8.39 -92.2,0 	"/>
	<polygon class="st19" points="-107.39,24.51 -107.39,-5.39 -109.1,-6.3 -109.1,23.61 	"/>
	<rect x="-81.78" y="50.93" class="st13" width="9.36" height="13.02"/>
</g>
<g id="Layer_4" class="st0">
	<polygon class="st26" points="9.58,44.62 32.42,61.28 25.11,61.28 0.25,45.59 5.59,42.13 	"/>
	<polygon class="st15" points="59.21,25.94 32.42,10.99 5.62,25.94 32.42,40.9 	"/>
	<polygon class="st24" points="59.21,45.14 59.21,25.94 32.42,40.9 32.42,61.28 	"/>
	<polygon class="st19" points="5.62,45.14 5.62,25.94 32.42,40.9 32.42,61.28 	"/>
	<polygon class="st19" points="55.07,25.94 32.42,13.3 9.76,25.94 32.42,38.58 	"/>
	<polygon class="st27" points="32.42,13.3 32.42,25.94 21.28,32.16 9.76,25.94 	"/>
	<polygon class="st13" points="49.86,28.87 32.42,19.13 14.98,28.87 32.42,38.6 	"/>
	<g class="st16">
		<polygon class="st20" points="34.54,31.49 32.37,30.27 30.23,31.45 32.39,32.67 		"/>
		<polygon class="st21" points="34.56,34.26 34.54,31.49 32.39,32.67 32.41,35.44 		"/>
		<polygon class="st28" points="30.25,34.22 30.23,31.45 32.39,32.67 32.41,35.44 		"/>
	</g>
	<polygon class="st27" points="56.97,43.87 56.97,29.61 34.19,42.55 34.19,57.25 	"/>
	<polygon class="st14" points="7.97,43.65 7.97,30.1 30.17,42.48 30.17,57.02 	"/>
	<polygon class="st13" points="9.92,42.96 9.92,31.17 30.17,42.48 30.17,55.19 	"/>
	<g class="st16">
		<path class="st18" d="M24.82,46.09v-1.17c0-1.18,1.27-1.92,2.3-1.35l0.59,0.33c0.44,0.25,0.72,0.71,0.72,1.22v2.03
			c0,0.76-0.83,1.23-1.48,0.84l-1.59-0.96C25.02,46.83,24.82,46.48,24.82,46.09z"/>
		<path class="st17" d="M19.58,41.42l-1.53-0.85c-0.47-0.26-0.77-0.76-0.77-1.31l0,0l-0.13-0.07c-1.78-0.99-2.88,1.12-2.88-0.92
			v-2.59c0-0.46-0.25-0.89-0.65-1.11l-1.3-0.72c-0.89-0.5-2,0.15-2,1.17v7.52c0,0.64,0.34,1.23,0.88,1.56l3.06,1.84l4.95,2.94
			c0.79,0.48,1.8-0.09,1.8-1.02v-3.96C21.04,42.87,20.48,41.92,19.58,41.42z"/>
		<path class="st18" d="M20.27,40.71l-1.56-0.87c-0.48-0.27-0.78-0.78-0.78-1.34l0,0l-0.13-0.07c-1.82-1.01-2.94,1.05-2.94-1.03
			v-2.65c0-0.47-0.26-0.91-0.67-1.14l-1.33-0.74c-0.91-0.51-2.04,0.15-2.04,1.2v7.78c0,0.65,0.34,1.26,0.9,1.6l3.13,1.89l5.07,3.01
			c0.81,0.49,1.84-0.1,1.84-1.04v-4.05C21.77,42.19,21.19,41.22,20.27,40.71z"/>
		<path class="st23" d="M19.95,40.93l-1.53-0.85c-0.47-0.26-0.77-0.76-0.77-1.31v0l-0.13-0.07c-1.78-0.99-2.88,1.12-2.88-0.92v-2.59
			c0-0.46-0.25-0.89-0.65-1.11l-1.3-0.72c-0.89-0.5-2,0.15-2,1.17v7.52c0,0.64,0.34,1.23,0.88,1.56l3.06,1.84l4.95,2.94
			c0.79,0.48,1.8-0.09,1.8-1.02v-3.96C21.41,42.38,20.85,41.43,19.95,40.93z"/>
		<path class="st17" d="M24.28,46.6v-1.17c0-1.18,1.27-1.92,2.3-1.35l0.59,0.33c0.44,0.25,0.72,0.71,0.72,1.22v2.03
			c0,0.76-0.83,1.23-1.48,0.84l-1.59-0.96C24.48,47.34,24.28,46.99,24.28,46.6z"/>
		<g>
			<polygon class="st17" points="11.85,40 12.28,39.83 14.4,41.01 14.4,43.7 13.96,43.87 			"/>
			<polygon class="st18" points="11.85,42.59 11.85,40 13.96,41.18 13.96,43.87 			"/>
			<polygon class="st20" points="13.96,41.18 11.85,40 12.28,39.83 14.4,41.01 			"/>
		</g>
		<g>
			<polygon class="st17" points="16.26,44.28 16.51,44.19 17.74,44.87 17.74,46.44 17.49,46.53 			"/>
			<polygon class="st18" points="16.26,45.79 16.26,44.28 17.49,44.97 17.49,46.53 			"/>
			<polygon class="st20" points="17.49,44.97 16.26,44.28 16.51,44.19 17.74,44.87 			"/>
		</g>
		<g>
			<polygon class="st17" points="15.77,40.64 16.13,40.5 17.88,41.48 17.88,43.71 17.52,43.85 			"/>
			<polygon class="st18" points="15.77,42.79 15.77,40.64 17.52,41.62 17.52,43.85 			"/>
			<polygon class="st20" points="17.52,41.62 15.77,40.64 16.13,40.5 17.88,41.48 			"/>
		</g>
		<g>
			<polygon class="st17" points="12.25,34.71 12.5,34.61 13.74,35.3 13.74,36.87 13.48,36.97 			"/>
			<polygon class="st18" points="12.25,36.22 12.25,34.71 13.48,35.4 13.48,36.97 			"/>
			<polygon class="st20" points="13.48,35.4 12.25,34.71 12.5,34.61 13.74,35.3 			"/>
		</g>
		<g>
			<polygon class="st17" points="10.97,36.61 11.29,36.49 12.87,37.36 12.87,39.36 12.54,39.48 			"/>
			<polygon class="st18" points="10.97,38.54 10.97,36.61 12.54,37.49 12.54,39.48 			"/>
			<polygon class="st20" points="12.54,37.49 10.97,36.61 11.29,36.49 12.87,37.36 			"/>
		</g>
		<path class="st23" d="M24.58,46.36v-1.17c0-1.18,1.27-1.92,2.3-1.35l0.59,0.33c0.44,0.25,0.72,0.71,0.72,1.22v2.03
			c0,0.76-0.83,1.23-1.48,0.84l-1.59-0.96C24.78,47.11,24.58,46.75,24.58,46.36z"/>
		<g>
			<polygon class="st17" points="25.34,44.94 25.59,44.85 26.83,45.54 26.83,47.11 26.58,47.21 			"/>
			<polygon class="st18" points="25.34,46.46 25.34,44.94 26.58,45.63 26.58,47.21 			"/>
			<polygon class="st20" points="26.58,45.63 25.34,44.94 25.59,44.85 26.83,45.54 			"/>
		</g>
	</g>
	<polygon class="st19" points="55.07,43.09 55.07,30.57 34.19,42.55 34.19,55.5 	"/>
	<g class="st16">
		<path class="st17" d="M48.37,40.06l0.01-1.63c0-0.75-0.8-1.21-1.45-0.85l-1.19,0.67c-0.31,0.17-0.5,0.5-0.51,0.86l-0.01,1.68
			c0,0.76,0.83,1.23,1.48,0.83l1.19-0.72C48.19,40.73,48.37,40.41,48.37,40.06z"/>
		<path class="st20" d="M49.13,39.62l0.01-1.63c0-0.75-0.8-1.21-1.45-0.85l-1.19,0.67c-0.31,0.17-0.5,0.5-0.51,0.86l-0.01,1.68
			c0,0.76,0.83,1.23,1.48,0.83l1.19-0.72C48.94,40.28,49.12,39.96,49.13,39.62z"/>
		<path class="st18" d="M48.99,39.86l0.01-1.63c0-0.75-0.8-1.21-1.45-0.85l-1.19,0.67c-0.31,0.17-0.5,0.5-0.51,0.86l-0.01,1.68
			c0,0.76,0.83,1.23,1.48,0.83l1.19-0.72C48.8,40.52,48.98,40.2,48.99,39.86z"/>
		<path class="st17" d="M52.61,38.53v-3.08c0-0.27-0.29-0.44-0.52-0.31l-0.27,0.15c-0.75,0.42-1.21,1.21-1.21,2.06v1.36
			c0,1.13-0.6,2.17-1.57,2.74l-4.16,2.42c-0.99,0.58-1.6,1.63-1.6,2.78v0c0,0.78,0.85,1.26,1.52,0.87l7.13-4.24
			c1.18-0.7,1.91-1.97,1.91-3.35v-0.7c0-0.26-0.28-0.42-0.5-0.29l0,0C53.01,39.13,52.61,38.9,52.61,38.53z"/>
		<path class="st20" d="M53.45,38.3v-3.08c0-0.27-0.29-0.44-0.52-0.31l-0.27,0.15c-0.75,0.42-1.21,1.21-1.21,2.06v1.36
			c0,1.13-0.6,2.17-1.57,2.74l-4.16,2.42c-0.99,0.58-1.6,1.63-1.6,2.78v0c0,0.78,0.85,1.26,1.52,0.87l7.13-4.24
			c1.18-0.7,1.91-1.97,1.91-3.35V39c0-0.26-0.28-0.42-0.5-0.29l0,0C53.85,38.9,53.45,38.67,53.45,38.3z"/>
		<path class="st18" d="M53.08,38.74v-3.08c0-0.27-0.29-0.44-0.52-0.31l-0.27,0.15c-0.75,0.42-1.21,1.21-1.21,2.06v1.36
			c0,1.13-0.6,2.17-1.57,2.74l-4.16,2.42c-0.99,0.58-1.6,1.63-1.6,2.78v0c0,0.78,0.85,1.26,1.52,0.87l7.13-4.24
			c1.18-0.7,1.91-1.97,1.91-3.35v-0.7c0-0.26-0.28-0.42-0.5-0.29v0C53.49,39.34,53.08,39.11,53.08,38.74z"/>
		<path class="st17" d="M41.97,46.86v-4.47c0-0.68-0.73-1.11-1.33-0.78l-2.41,1.35c-1.58,0.88-2.57,2.56-2.57,4.37v2.53
			c0,1.12,1.22,1.81,2.18,1.23l2.64-1.59C41.4,48.94,41.97,47.94,41.97,46.86z"/>
		<path class="st20" d="M42.6,46.22v-4.47c0-0.68-0.73-1.11-1.33-0.78l-2.41,1.35c-1.58,0.88-2.57,2.56-2.57,4.37v2.53
			c0,1.12,1.22,1.81,2.18,1.23l2.64-1.59C42.03,48.3,42.6,47.3,42.6,46.22z"/>
		<path class="st18" d="M42.34,46.96v-4.3c0-0.66-0.71-1.07-1.28-0.75l-2.32,1.3c-1.53,0.85-2.47,2.46-2.47,4.21v2.44
			c0,1.07,1.17,1.74,2.09,1.18l2.54-1.53C41.79,48.97,42.34,48,42.34,46.96z"/>
		<g>
			<polygon class="st21" points="38.13,50.39 40.16,46.69 39.5,46.52 37.47,47.62 37.47,50.11 			"/>
			<polygon class="st22" points="40.16,49.17 40.16,46.69 38.13,47.82 38.13,50.39 			"/>
		</g>
		<g>
			<polygon class="st21" points="51.57,43.31 53.59,39.61 52.93,39.44 50.9,40.54 50.9,43.04 			"/>
			<polygon class="st22" points="53.59,42.09 53.59,39.61 51.57,40.74 51.57,43.31 			"/>
		</g>
		<polygon class="st20" points="38.13,47.82 40.16,46.69 39.5,46.52 37.47,47.62 		"/>
		<polygon class="st20" points="51.57,40.74 53.59,39.61 52.93,39.44 50.9,40.54 		"/>
		<g>
			<polygon class="st21" points="45.31,47.01 46.58,44.7 46.17,44.6 44.9,45.28 44.9,46.84 			"/>
			<polygon class="st22" points="46.58,46.25 46.58,44.7 45.31,45.41 45.31,47.01 			"/>
		</g>
		<polygon class="st20" points="45.31,45.41 46.58,44.7 46.17,44.6 44.9,45.28 		"/>
		<g>
			<polygon class="st21" points="40.94,48.49 42.2,46.18 41.79,46.07 40.52,46.76 40.52,48.32 			"/>
			<polygon class="st22" points="42.2,47.73 42.2,46.18 40.94,46.88 40.94,48.49 			"/>
		</g>
		<polygon class="st20" points="40.94,46.88 42.2,46.18 41.79,46.07 40.52,46.76 		"/>
		<g>
			<polygon class="st21" points="47.13,40.61 48.4,38.3 47.98,38.19 46.72,38.88 46.72,40.44 			"/>
			<polygon class="st22" points="48.4,39.85 48.4,38.3 47.13,39.01 47.13,40.61 			"/>
		</g>
		<polygon class="st20" points="47.13,39.01 48.4,38.3 47.98,38.19 46.72,38.88 		"/>
		<g>
			<polygon class="st21" points="39.33,46.48 41.36,42.77 40.7,42.6 38.67,43.71 38.67,46.2 			"/>
			<polygon class="st22" points="41.36,45.26 41.36,42.77 39.33,43.9 39.33,46.48 			"/>
		</g>
	</g>
	<polygon class="st19" points="30.23,60.02 30.23,31.44 32.42,32.67 32.42,61.28 	"/>
	<polygon class="st24" points="34.63,60.02 34.6,31.44 32.39,32.67 32.42,61.28 	"/>
	<polygon class="st13" points="55.07,30.57 56.97,29.61 56.97,43.87 55.07,43.09 	"/>
</g>
<g id="Layer_6">
	<polygon class="st29" points="11.73,28.53 19.35,18.74 19.08,22.17 16.58,28.26 17.25,37.19 19.24,40.46 12.66,35.35 13.63,35.21 
		13.76,30.07 11.73,30.07 	"/>
	<polygon class="st29" points="27.1,22.05 26.05,46.57 30.38,33.14 35.54,46.13 34.7,20.82 32.35,5.32 32.97,34.11 30.95,25.13 
		28.31,34.11 30.21,9.06 	"/>
	<polygon class="st29" points="35.54,13.23 37.76,42.27 43.03,33.73 42.77,31.98 39.17,35.83 38.85,30.75 40.35,30.83 40.27,29.17 
		38.4,27.39 38,22.28 41.94,26.49 41.5,23.6 	"/>
	<path class="st29" d="M48.12,35.21l1.77-2.22L45.31,27l1.61-4.66l-7.25-6.73l0.74,4.48l1.78,3.22l1.79,11.03l-0.55,6.15L47,36.04
		l-2.42-7.84l0.84,0.38L48.12,35.21z M43.96,25.32l-0.92-3.51l1.91,1.9L43.96,25.32z"/>
	<path class="st29" d="M24.07,15.06l-5.98,13.36l0.59,8.34l1.52,2.61L22.42,42l1.95-5.04l1.6-8.47L24.07,15.06z M21.68,34.54
		l-0.53,3.26l-1.16-3.06l0.62-8.01l2.08-4.39l0.04,4.54L21.68,34.54z"/>
	<g>
		<path d="M18.99,55.41l-0.75-3.68h0.24l0.39,1.97c0.1,0.49,0.17,0.9,0.22,1.35h0.02c0.04-0.47,0.13-0.87,0.23-1.36l0.39-1.96h0.22
			l0.4,1.91c0.09,0.45,0.19,0.87,0.24,1.41h0.02c0.07-0.56,0.15-0.97,0.23-1.38l0.38-1.93h0.24l-0.76,3.68h-0.21l-0.44-2.15
			c-0.08-0.42-0.16-0.83-0.2-1.21h-0.01c-0.04,0.4-0.11,0.79-0.2,1.23l-0.44,2.13H18.99z"/>
		<path d="M27.42,54.14l-0.29,1.27h-0.23l0.87-3.68h0.22l0.88,3.68h-0.24l-0.29-1.27H27.42z M28.27,53.94l-0.23-1.04
			c-0.07-0.28-0.12-0.55-0.16-0.84h-0.02c-0.04,0.3-0.1,0.57-0.16,0.85l-0.23,1.03H28.27z"/>
		<path d="M34.83,51.72h0.23v1.81h0.01c0.1-0.15,0.18-0.29,0.26-0.43l0.81-1.38h0.27l-0.95,1.55l0.98,2.13h-0.26l-0.88-1.93
			l-0.24,0.38v1.55h-0.23V51.72z"/>
		<path d="M43.53,53.58h-0.97v1.62h1.11v0.21h-1.35v-3.68h1.28v0.21h-1.04v1.44h0.97V53.58z"/>
	</g>
	<polygon class="st29" points="47.06,27.94 50.49,31.4 52.27,27.94 51.85,27.08 48.67,25.86 48.54,24.55 49.19,24.02 50.21,24.38 
		51.36,26.02 50.62,23.64 48.85,23.07 47.27,24.14 46.64,26.6 48.65,26.72 51.29,27.94 50.49,29.17 48.95,27.94 	"/>
	<polygon class="st29" points="11.73,27.61 13,25.85 13,26.99 11.73,28.62 	"/>
	<polygon class="st29" points="14.02,25.59 14.02,24.71 15.67,22.5 15.67,23.55 	"/>
	<polygon class="st29" points="17.16,21.55 17.16,20.51 19.35,17.66 19.35,18.74 	"/>
</g>
<g id="Layer_5" class="st0">
	<g class="st16">
		<polygon class="st30" points="63.6,15.04 32.63,5.08 1.35,15.04 32.48,32.82 		"/>
		<polygon class="st31" points="32.63,7.26 63.6,15.04 32.48,32.82 		"/>
		<polygon class="st32" points="32.63,7.26 63.6,15.04 32.91,2.72 		"/>
		<polygon class="st31" points="32.63,7.26 1.35,15.04 32.91,2.72 		"/>
	</g>
</g>
<g id="Layer_10" class="st0">
</g>
<g id="Layer_8" class="st0">
	<g class="st16">
		<polygon class="st33" points="20.42,14.16 19.93,11.23 18.15,9.3 17.06,9.47 15.94,10.73 14.84,13.61 8.86,18.49 6.31,29.36 
			5.22,51.26 7.3,53.17 13.89,55.2 23.97,54.52 26.72,53 25.94,30.37 24.3,19 		"/>
		<polygon class="st34" points="17.64,19.74 18.68,37.01 18.87,55.2 23.97,54.52 23.66,37.27 22.93,24.04 24.3,19 20.42,14.16 		"/>
		<polygon class="st33" points="20.42,14.16 19.87,17.51 17.64,19.74 15.74,17.45 14.84,13.61 		"/>
		<polygon class="st34" points="17.64,19.74 18.68,37.01 18.87,54.86 13.89,55.2 10.64,54.2 11.45,30.71 12.03,23.48 8.86,18.49 
			14.84,13.61 		"/>
		<polygon class="st35" points="19.43,11.96 18.51,11.44 17.23,12.48 16.54,14.6 16.94,17.11 17.71,18.83 19.17,16.67 19.43,14.6 
			19.66,13.29 		"/>
		<polygon class="st33" points="17.82,19.56 18.68,37.01 18.87,55.2 18.58,54.97 18.39,37.08 17.64,19.74 		"/>
		<polygon class="st36" points="20.42,14.16 19.38,17.02 17.71,18.83 16.25,17.18 14.84,13.61 15.74,17.45 17.64,19.74 19.87,17.51 
					"/>
		<g>
			<circle class="st37" cx="18.18" cy="13.11" r="0.13"/>
			<circle class="st37" cx="17.6" cy="13.2" r="0.13"/>
		</g>
		<g>
			<circle class="st37" cx="17.75" cy="14.3" r="0.13"/>
			<circle class="st37" cx="17.18" cy="14.16" r="0.13"/>
		</g>
		<g>
			<circle class="st37" cx="18.17" cy="15.78" r="0.13"/>
			<circle class="st37" cx="17.58" cy="15.78" r="0.13"/>
		</g>
		<g>
			<circle class="st37" cx="18.82" cy="14.66" r="0.18"/>
			<circle class="st37" cx="18.06" cy="14.92" r="0.18"/>
		</g>
		<g>
			<circle class="st37" cx="18.42" cy="13.65" r="0.08"/>
			<circle class="st37" cx="18.09" cy="13.58" r="0.08"/>
		</g>
	</g>
	<g class="st16">
		
			<rect x="31.54" y="40.85" transform="matrix(-1 -1.224647e-16 1.224647e-16 -1 76.2964 94.9218)" class="st38" width="13.22" height="13.22"/>
		<polygon class="st33" points="41.55,45.72 37.84,44.41 36.77,45.56 36.98,47.46 36.47,48.17 36.11,50.18 35.32,51.29 36.73,52.69 
			39.41,52.69 40.8,51.44 39.67,48.55 40.62,47.89 40.36,47.02 		"/>
		<polygon class="st36" points="37.4,48.23 36.98,48.08 36.98,47.46 36.47,48.17 36.11,50.18 35.32,51.29 36.73,52.69 37.67,52.69 
			36.89,51.45 36.6,49.71 36.6,48.55 		"/>
		<polygon class="st36" points="36.77,45.56 37.84,44.41 41.55,45.72 37.96,44.75 37.11,45.93 36.98,47.46 		"/>
		<polygon class="st34" points="39.34,52.44 37.99,52.45 39.41,50.94 39.41,50.23 38.83,50.45 36.6,49.71 38.01,49.74 38.15,48.96 
			37.4,48.23 37.75,47.12 38.81,46.8 39.76,45.54 41.55,45.72 40.98,46.97 40.48,47.7 39.57,48.08 39.51,48.55 40.48,51.36 		"/>
		<polygon class="st35" points="41.55,45.72 40.4,45.95 38.98,47.01 39.16,48.83 39.67,48.55 40.62,47.89 41.28,47.02 		"/>
		<circle class="st37" cx="39.64" cy="46.8" r="0.12"/>
		<circle class="st37" cx="40.15" cy="46.68" r="0.12"/>
		<polygon class="st36" points="37.59,50.01 37.59,50.96 37.35,51.54 36.99,52.16 36.48,51.56 35.95,50.56 35.5,50.01 36.67,48.73 
			37.21,48.55 37.82,49 37.84,49.55 37.48,49.87 37.05,49.64 		"/>
		<polygon class="st33" points="36.91,50.54 36.36,50.54 35.66,49.96 35.5,50.01 35.89,50.49 36.48,51.56 36.99,52.16 		"/>
		<polygon class="st34" points="37.59,50.01 37.34,49.92 36.91,50.54 36.88,51.39 36.99,52.16 37.35,51.54 37.59,50.96 		"/>
		<polygon class="st35" points="37.54,50.19 37.41,50.07 37.06,50.55 36.96,51.36 37.01,51.99 37.46,50.96 		"/>
		<polygon class="st33" points="37.21,48.55 36.94,49.12 36.43,49.46 37.05,49.64 37.48,49.87 37.84,49.55 37.82,49 		"/>
		<g>
			
				<rect x="37.52" y="28.9" transform="matrix(-1 -1.224647e-16 1.224647e-16 -1 75.3363 82.0578)" class="st33" width="0.3" height="24.27"/>
			<polyline class="st36" points="37.52,53.16 37.52,28.9 37.61,28.9 37.61,53.16 			"/>
			<polyline class="st34" points="37.73,53.16 37.73,28.9 37.82,28.9 37.82,53.16 			"/>
		</g>
		<polygon class="st35" points="37.55,50.35 37.89,50.32 38.15,50.4 38.15,50.9 38.06,51.17 37.62,51.22 37.39,51.04 37.24,50.89 
			37.28,50.55 37.39,50.4 		"/>
		<polygon class="st36" points="38.15,50.4 37.89,50.32 37.74,50.4 37.45,50.45 37.39,50.56 37.76,50.64 37.97,50.61 		"/>
		<polygon class="st35" points="37.67,29.1 37.32,28.74 37.67,25.74 38.02,28.74 		"/>
	</g>
	<g class="st16">
		
			<rect x="23.94" y="43.02" transform="matrix(-1 -1.224647e-16 1.224647e-16 -1 61.1124 99.2612)" class="st38" width="13.22" height="13.22"/>
		<polygon class="st33" points="33.95,47.89 30.25,46.58 29.18,47.73 29.39,49.63 28.88,50.34 28.52,52.35 27.73,53.46 29.13,54.86 
			31.82,54.86 33.21,53.61 32.08,50.72 33.03,50.06 32.77,49.19 		"/>
		<polygon class="st36" points="29.81,50.4 29.39,50.25 29.39,49.63 28.88,50.34 28.52,52.35 27.73,53.46 29.13,54.86 30.08,54.86 
			29.3,53.62 29.01,51.88 29.01,50.72 		"/>
		<polygon class="st36" points="29.18,47.73 30.25,46.58 33.95,47.89 30.37,46.92 29.52,48.1 29.39,49.63 		"/>
		<polygon class="st34" points="31.75,54.61 30.4,54.62 31.82,53.11 31.82,52.4 31.24,52.62 29.01,51.88 30.42,51.91 30.56,51.13 
			29.81,50.4 30.16,49.29 31.22,48.97 32.17,47.71 33.95,47.89 33.39,49.14 32.89,49.87 31.98,50.25 31.91,50.72 32.89,53.53 		"/>
		<polygon class="st35" points="33.95,47.89 32.81,48.12 31.39,49.17 31.57,51 32.08,50.72 33.03,50.06 33.69,49.19 		"/>
		<circle class="st37" cx="32.05" cy="48.97" r="0.12"/>
		<circle class="st37" cx="32.56" cy="48.85" r="0.12"/>
		<polygon class="st36" points="30,52.18 30,53.13 29.75,53.71 29.39,54.33 28.89,53.73 28.36,52.73 27.91,52.18 29.08,50.9 
			29.62,50.72 30.23,51.17 30.25,51.72 29.88,52.04 29.46,51.81 		"/>
		<polygon class="st33" points="29.32,52.7 28.77,52.7 28.07,52.13 27.91,52.18 28.3,52.66 28.89,53.73 29.39,54.33 		"/>
		<polygon class="st34" points="30,52.18 29.75,52.09 29.32,52.7 29.29,53.56 29.39,54.33 29.75,53.71 30,53.13 		"/>
		<polygon class="st35" points="29.95,52.36 29.81,52.24 29.47,52.72 29.37,53.53 29.42,54.16 29.86,53.13 		"/>
		<polygon class="st33" points="29.62,50.72 29.35,51.29 28.84,51.63 29.46,51.81 29.88,52.04 30.25,51.72 30.23,51.17 		"/>
		<g>
			
				<rect x="29.93" y="31.07" transform="matrix(-1 -1.224647e-16 1.224647e-16 -1 60.1523 86.3972)" class="st33" width="0.3" height="24.27"/>
			<polyline class="st36" points="29.93,55.33 29.93,31.07 30.02,31.07 30.02,55.33 			"/>
			<polyline class="st34" points="30.14,55.33 30.14,31.07 30.22,31.07 30.22,55.33 			"/>
		</g>
		<polygon class="st35" points="29.95,52.52 30.29,52.48 30.56,52.57 30.56,53.07 30.47,53.34 30.03,53.39 29.8,53.21 29.65,53.06 
			29.69,52.72 29.8,52.57 		"/>
		<polygon class="st36" points="30.56,52.57 30.29,52.48 30.14,52.57 29.86,52.62 29.79,52.73 30.17,52.81 30.38,52.78 		"/>
		<polygon class="st35" points="30.08,31.27 29.72,30.91 30.08,27.91 30.43,30.91 		"/>
	</g>
	<g class="st16">
		
			<rect x="37.09" y="43.02" transform="matrix(-1 -1.224647e-16 1.224647e-16 -1 87.3967 99.2612)" class="st38" width="13.22" height="13.22"/>
		<polygon class="st33" points="47.1,47.89 43.39,46.58 42.32,47.73 42.53,49.63 42.02,50.34 41.66,52.35 40.87,53.46 42.28,54.86 
			44.96,54.86 46.35,53.61 45.22,50.72 46.17,50.06 45.91,49.19 		"/>
		<polygon class="st36" points="42.95,50.4 42.53,50.25 42.53,49.63 42.02,50.34 41.66,52.35 40.87,53.46 42.28,54.86 43.22,54.86 
			42.44,53.62 42.15,51.88 42.15,50.72 		"/>
		<polygon class="st36" points="42.32,47.73 43.39,46.58 47.1,47.89 43.51,46.92 42.66,48.1 42.53,49.63 		"/>
		<polygon class="st34" points="44.89,54.61 43.54,54.62 44.96,53.11 44.96,52.4 44.38,52.62 42.15,51.88 43.56,51.91 43.7,51.13 
			42.95,50.4 43.3,49.29 44.36,48.97 45.31,47.71 47.1,47.89 46.53,49.14 46.03,49.87 45.12,50.25 45.06,50.72 46.03,53.53 		"/>
		<polygon class="st35" points="47.1,47.89 45.96,48.12 44.53,49.17 44.71,51 45.22,50.72 46.17,50.06 46.83,49.19 		"/>
		<circle class="st37" cx="45.19" cy="48.97" r="0.12"/>
		<circle class="st37" cx="45.7" cy="48.85" r="0.12"/>
		<polygon class="st36" points="43.14,52.18 43.14,53.13 42.9,53.71 42.54,54.33 42.03,53.73 41.5,52.73 41.05,52.18 42.22,50.9 
			42.76,50.72 43.37,51.17 43.39,51.72 43.03,52.04 42.6,51.81 		"/>
		<polygon class="st33" points="42.46,52.7 41.91,52.7 41.21,52.13 41.05,52.18 41.44,52.66 42.03,53.73 42.54,54.33 		"/>
		<polygon class="st34" points="43.14,52.18 42.89,52.09 42.46,52.7 42.43,53.56 42.54,54.33 42.9,53.71 43.14,53.13 		"/>
		<polygon class="st35" points="43.09,52.36 42.96,52.24 42.61,52.72 42.51,53.53 42.57,54.16 43.01,53.13 		"/>
		<polygon class="st33" points="42.76,50.72 42.49,51.29 41.98,51.63 42.6,51.81 43.03,52.04 43.39,51.72 43.37,51.17 		"/>
		<g>
			
				<rect x="43.07" y="31.07" transform="matrix(-1 -1.224647e-16 1.224647e-16 -1 86.4366 86.3972)" class="st33" width="0.3" height="24.27"/>
			<polyline class="st36" points="43.07,55.33 43.07,31.07 43.16,31.07 43.16,55.33 			"/>
			<polyline class="st34" points="43.28,55.33 43.28,31.07 43.37,31.07 43.37,55.33 			"/>
		</g>
		<polygon class="st35" points="43.1,52.52 43.44,52.48 43.7,52.57 43.7,53.07 43.61,53.34 43.17,53.39 42.94,53.21 42.79,53.06 
			42.83,52.72 42.94,52.57 		"/>
		<polygon class="st36" points="43.7,52.57 43.44,52.48 43.29,52.57 43,52.62 42.94,52.73 43.31,52.81 43.52,52.78 		"/>
		<polygon class="st35" points="43.22,31.27 42.87,30.91 43.22,27.91 43.57,30.91 		"/>
	</g>
	<g class="st16">
		
			<rect x="28.71" y="43.9" transform="matrix(-1 -1.224647e-16 1.224647e-16 -1 70.6448 101.0234)" class="st38" width="13.22" height="13.22"/>
		<polygon class="st33" points="38.72,48.78 35.02,47.46 33.94,48.61 34.16,50.51 33.64,51.22 33.29,53.23 32.5,54.34 33.9,55.74 
			36.58,55.74 37.97,54.49 36.85,51.6 37.8,50.94 37.53,50.07 		"/>
		<polygon class="st36" points="34.57,51.28 34.16,51.13 34.16,50.51 33.64,51.22 33.29,53.23 32.5,54.34 33.9,55.74 34.84,55.74 
			34.06,54.5 33.77,52.76 33.77,51.6 		"/>
		<polygon class="st36" points="33.94,48.61 35.02,47.46 38.72,48.78 35.13,47.8 34.29,48.98 34.16,50.51 		"/>
		<polygon class="st34" points="36.52,55.49 35.17,55.51 36.58,53.99 36.58,53.28 36,53.5 33.77,52.76 35.18,52.79 35.32,52.01 
			34.57,51.28 34.92,50.17 35.99,49.85 36.94,48.59 38.72,48.78 38.15,50.02 37.65,50.76 36.74,51.13 36.68,51.6 37.65,54.41 		"/>
		<polygon class="st35" points="38.72,48.78 37.58,49 36.15,50.06 36.33,51.88 36.85,51.6 37.8,50.94 38.46,50.07 		"/>
		<circle class="st37" cx="36.82" cy="49.85" r="0.12"/>
		<circle class="st37" cx="37.32" cy="49.74" r="0.12"/>
		<polygon class="st36" points="34.77,53.06 34.77,54.01 34.52,54.59 34.16,55.21 33.65,54.61 33.13,53.61 32.68,53.06 33.85,51.78 
			34.38,51.6 34.99,52.05 35.01,52.6 34.65,52.92 34.22,52.69 		"/>
		<polygon class="st33" points="34.08,53.59 33.54,53.59 32.83,53.02 32.68,53.06 33.07,53.54 33.65,54.61 34.16,55.21 		"/>
		<polygon class="st34" points="34.77,53.06 34.52,52.98 34.08,53.59 34.05,54.44 34.16,55.21 34.52,54.59 34.77,54.01 		"/>
		<polygon class="st35" points="34.72,53.24 34.58,53.13 34.24,53.6 34.14,54.41 34.19,55.04 34.63,54.01 		"/>
		<polygon class="st33" points="34.38,51.6 34.12,52.17 33.6,52.51 34.22,52.69 34.65,52.92 35.01,52.6 34.99,52.05 		"/>
		<g>
			
				<rect x="34.69" y="31.95" transform="matrix(-1 -1.224647e-16 1.224647e-16 -1 69.6847 88.1594)" class="st33" width="0.3" height="24.27"/>
			<polyline class="st36" points="34.69,56.21 34.69,31.95 34.78,31.95 34.78,56.21 			"/>
			<polyline class="st34" points="34.9,56.21 34.9,31.95 34.99,31.95 34.99,56.21 			"/>
		</g>
		<polygon class="st35" points="34.72,53.4 35.06,53.37 35.32,53.45 35.32,53.96 35.23,54.22 34.79,54.27 34.57,54.09 34.41,53.94 
			34.45,53.6 34.56,53.45 		"/>
		<polygon class="st36" points="35.32,53.45 35.06,53.37 34.91,53.45 34.63,53.51 34.56,53.61 34.93,53.69 35.15,53.66 		"/>
		<polygon class="st35" points="34.84,32.15 34.49,31.79 34.84,28.79 35.19,31.79 		"/>
	</g>
	<g class="st16">
		
			<rect x="32.36" y="46.8" transform="matrix(-1 -1.224647e-16 1.224647e-16 -1 77.9399 106.8176)" class="st38" width="13.22" height="13.22"/>
		<polygon class="st33" points="42.37,51.67 38.67,50.35 37.59,51.51 37.81,53.41 37.29,54.11 36.93,56.13 36.14,57.24 37.55,58.64 
			40.23,58.64 41.62,57.39 40.5,54.49 41.44,53.84 41.18,52.96 		"/>
		<polygon class="st36" points="38.22,54.18 37.81,54.03 37.81,53.41 37.29,54.11 36.93,56.13 36.14,57.24 37.55,58.64 38.49,58.64 
			37.71,57.4 37.42,55.66 37.42,54.49 		"/>
		<polygon class="st36" points="37.59,51.51 38.67,50.35 42.37,51.67 38.78,50.7 37.93,51.88 37.81,53.41 		"/>
		<polygon class="st34" points="40.16,58.39 38.81,58.4 40.23,56.89 40.23,56.18 39.65,56.39 37.42,55.66 38.83,55.69 38.97,54.91 
			38.22,54.18 38.57,53.07 39.64,52.75 40.59,51.49 42.37,51.67 41.8,52.92 41.3,53.65 40.39,54.03 40.33,54.49 41.3,57.31 		"/>
		<polygon class="st35" points="42.37,51.67 41.23,51.9 39.8,52.95 39.98,54.78 40.5,54.49 41.44,53.84 42.1,52.96 		"/>
		<circle class="st37" cx="40.47" cy="52.75" r="0.12"/>
		<circle class="st37" cx="40.97" cy="52.63" r="0.12"/>
		<polygon class="st36" points="38.41,55.96 38.41,56.91 38.17,57.49 37.81,58.11 37.3,57.51 36.77,56.51 36.33,55.96 37.49,54.68 
			38.03,54.49 38.64,54.94 38.66,55.5 38.3,55.82 37.87,55.59 		"/>
		<polygon class="st33" points="37.73,56.48 37.18,56.48 36.48,55.91 36.33,55.96 36.72,56.44 37.3,57.51 37.81,58.11 		"/>
		<polygon class="st34" points="38.41,55.96 38.17,55.87 37.73,56.48 37.7,57.33 37.81,58.11 38.17,57.49 38.41,56.91 		"/>
		<polygon class="st35" points="38.36,56.14 38.23,56.02 37.88,56.5 37.78,57.31 37.84,57.94 38.28,56.91 		"/>
		<polygon class="st33" points="38.03,54.49 37.76,55.07 37.25,55.41 37.87,55.59 38.3,55.82 38.66,55.5 38.64,54.94 		"/>
		<g>
			
				<rect x="38.34" y="34.84" transform="matrix(-1 -1.224647e-16 1.224647e-16 -1 76.9798 93.9537)" class="st33" width="0.3" height="24.27"/>
			<polyline class="st36" points="38.34,59.11 38.34,34.84 38.43,34.84 38.43,59.11 			"/>
			<polyline class="st34" points="38.55,59.11 38.55,34.84 38.64,34.84 38.64,59.11 			"/>
		</g>
		<polygon class="st35" points="38.37,56.3 38.71,56.26 38.97,56.35 38.97,56.85 38.88,57.12 38.44,57.17 38.21,56.99 38.06,56.84 
			38.1,56.5 38.21,56.35 		"/>
		<polygon class="st36" points="38.97,56.35 38.71,56.26 38.56,56.35 38.27,56.4 38.21,56.51 38.58,56.59 38.79,56.56 		"/>
		<polygon class="st35" points="38.49,35.04 38.14,34.69 38.49,31.68 38.84,34.69 		"/>
	</g>
	<g class="st16">
		
			<rect x="25.55" y="47.36" transform="matrix(-1 -1.224647e-16 1.224647e-16 -1 64.3284 107.9486)" class="st38" width="13.22" height="13.22"/>
		<polygon class="st33" points="35.56,52.24 31.86,50.92 30.78,52.07 31,53.97 30.48,54.68 30.13,56.7 29.34,57.81 30.74,59.2 
			33.43,59.2 34.81,57.96 33.69,55.06 34.64,54.4 34.38,53.53 		"/>
		<polygon class="st36" points="31.42,54.74 31,54.59 31,53.97 30.48,54.68 30.13,56.7 29.34,57.81 30.74,59.2 31.68,59.2 
			30.9,57.97 30.61,56.22 30.61,55.06 		"/>
		<polygon class="st36" points="30.78,52.07 31.86,50.92 35.56,52.24 31.98,51.26 31.13,52.45 31,53.97 		"/>
		<polygon class="st34" points="33.36,58.96 32.01,58.97 33.43,57.45 33.43,56.74 32.85,56.96 30.61,56.22 32.03,56.26 32.16,55.47 
			31.42,54.74 31.76,53.64 32.83,53.31 33.78,52.05 35.56,52.24 34.99,53.49 34.49,54.22 33.58,54.6 33.52,55.06 34.49,57.87 		"/>
		<polygon class="st35" points="35.56,52.24 34.42,52.47 33,53.52 33.17,55.35 33.69,55.06 34.64,54.4 35.3,53.53 		"/>
		<circle class="st37" cx="33.66" cy="53.31" r="0.12"/>
		<circle class="st37" cx="34.16" cy="53.2" r="0.12"/>
		<polygon class="st36" points="31.61,56.53 31.61,57.47 31.36,58.05 31,58.67 30.5,58.07 29.97,57.08 29.52,56.53 30.69,55.25 
			31.22,55.06 31.83,55.51 31.86,56.06 31.49,56.38 31.06,56.15 		"/>
		<polygon class="st33" points="30.93,57.05 30.38,57.05 29.67,56.48 29.52,56.53 29.91,57 30.5,58.07 31,58.67 		"/>
		<polygon class="st34" points="31.61,56.53 31.36,56.44 30.93,57.05 30.89,57.9 31,58.67 31.36,58.05 31.61,57.47 		"/>
		<polygon class="st35" points="31.56,56.71 31.42,56.59 31.08,57.07 30.98,57.88 31.03,58.51 31.47,57.47 		"/>
		<polygon class="st33" points="31.22,55.06 30.96,55.63 30.44,55.97 31.06,56.15 31.49,56.38 31.86,56.06 31.83,55.51 		"/>
		<g>
			
				<rect x="31.54" y="35.41" transform="matrix(-1 -1.224647e-16 1.224647e-16 -1 63.3683 95.0846)" class="st33" width="0.3" height="24.27"/>
			<polyline class="st36" points="31.54,59.68 31.54,35.41 31.63,35.41 31.63,59.68 			"/>
			<polyline class="st34" points="31.74,59.68 31.74,35.41 31.83,35.41 31.83,59.68 			"/>
		</g>
		<polygon class="st35" points="31.56,56.87 31.9,56.83 32.16,56.91 32.16,57.42 32.07,57.68 31.63,57.73 31.41,57.56 31.25,57.4 
			31.3,57.07 31.41,56.92 		"/>
		<polygon class="st36" points="32.16,56.91 31.9,56.83 31.75,56.91 31.47,56.97 31.4,57.07 31.78,57.15 31.99,57.12 		"/>
		<polygon class="st35" points="31.68,35.61 31.33,35.26 31.68,32.25 32.04,35.26 		"/>
	</g>
</g>
<g id="Layer_7" class="st0">
	<path class="st39" d="M81.6,24.84"/>
	<g class="st16">
		<polyline class="st33" points="60.21,50.34 55.14,53.49 55.79,47.25 55.64,45.73 54.74,42.62 55.24,38.97 55.54,38.22 
			55.44,37.11 55.84,33.95 56.77,32.05 56.79,30.89 57.19,29.44 58.4,28.79 59.9,31.04 59,32.65 59.65,35.06 60.7,36.26 59.72,42.4 
			60.35,46.25 60.91,48.71 60.91,50.39 		"/>
		<polyline class="st33" points="60.91,50.39 61.32,56.09 61.73,56.38 62.86,57.49 60.98,56.86 61.04,55.93 60.21,50.34 		"/>
		<polygon class="st35" points="59.63,31.08 58.71,30.64 58.2,30.89 57.75,31.95 57.75,33.55 58.25,35.06 58.3,36.11 58.71,35.01 
			58.71,33.85 58.71,31.95 59.21,31.18 		"/>
		<polygon class="st33" points="55.14,53.49 54.92,56.11 54.74,56.69 55.14,57.16 56.57,57.64 55.65,56.77 55.27,56.15 55.94,52.87 
					"/>
		<path class="st33" d="M63.21,50.72"/>
		<polygon class="st40" points="55.94,52.87 57.24,46.92 55.09,42.7 55.74,39.42 55.84,38.37 56.59,38.62 55.69,36.96 56.48,33.92 
			57.41,33.37 57.24,30.64 57.54,29.54 58.4,28.79 57.19,29.44 56.79,30.89 56.77,32.05 55.84,33.95 55.09,37.43 55.54,38.22 
			55.24,38.97 54.74,42.62 55.79,47.25 55.14,53.49 		"/>
		<circle class="st37" cx="58.85" cy="31.18" r="0.13"/>
		<circle class="st37" cx="58.26" cy="31.18" r="0.13"/>
		<polygon class="st34" points="55.69,36.96 56.59,38.62 58.26,38.62 59.9,37.79 58.4,39.43 56.34,39.43 55.84,38.37 		"/>
		<polygon class="st34" points="60.59,37.78 58.98,37.79 57.75,37.48 59.8,37.23 60.21,36.96 60.7,36.26 		"/>
		<polygon class="st34" points="55.84,38.37 55.09,42.7 56.57,43.11 59.4,47.46 58.85,43.19 58.98,40.79 59.9,37.79 58.4,39.43 		
			"/>
		<polygon class="st34" points="60.35,46.25 58.85,43.19 58.98,40.54 59.9,37.79 60.59,37.78 59.72,42.4 		"/>
		<polygon class="st36" points="58.39,29.29 59.63,30.64 59.01,30.64 58.4,29.97 		"/>
		<polygon class="st36" points="59.01,33.37 59.63,35.31 58.98,36.11 		"/>
		<polygon class="st36" points="57.82,37.22 59.72,36.96 60.7,36.26 59.9,35.34 59.3,36.47 		"/>
		<polygon class="st36" points="56.22,37.22 56.99,37.79 58.4,38.02 56.94,38.2 		"/>
		<polygon class="st36" points="60.21,45.96 60.21,47.9 60.91,48.71 		"/>
	</g>
	<g class="st16">
		<polyline class="st33" points="54.47,52.64 49.4,55.78 50.05,49.54 49.9,48.02 48.99,44.92 49.5,41.26 49.8,40.51 49.7,39.4 
			50.1,36.24 51.03,34.34 51.05,33.18 51.45,31.73 52.66,31.08 54.16,33.33 53.26,34.94 53.91,37.35 54.96,38.55 53.98,44.7 
			54.61,48.54 55.17,51 55.17,52.68 		"/>
		<polyline class="st33" points="54.47,52.64 55.3,58.22 55.24,59.15 57.12,59.78 55.99,58.67 55.58,58.38 55.17,52.68 		"/>
		<polygon class="st35" points="53.89,33.37 52.97,32.93 52.46,33.18 52,34.24 52,35.84 52.51,37.35 52.56,38.4 52.97,37.3 
			52.97,36.14 52.97,34.24 53.47,33.47 		"/>
		<polygon class="st33" points="49.4,55.78 49.18,58.4 48.99,58.98 49.4,59.45 50.83,59.93 49.91,59.06 49.53,58.44 50.2,55.16 		
			"/>
		<path class="st33" d="M57.47,53.01"/>
		<polygon class="st40" points="50.2,55.16 51.5,49.21 49.35,44.99 50,41.71 50.1,40.66 50.85,40.91 49.95,39.25 50.74,36.21 
			51.67,35.67 51.5,32.93 51.8,31.83 52.66,31.08 51.45,31.73 51.05,33.18 51.03,34.34 50.1,36.24 49.35,39.72 49.8,40.51 
			49.5,41.26 48.99,44.92 50.05,49.54 49.4,55.78 		"/>
		<circle class="st37" cx="53.1" cy="33.47" r="0.13"/>
		<circle class="st37" cx="52.52" cy="33.47" r="0.13"/>
		<polygon class="st34" points="49.95,39.25 50.85,40.91 52.52,40.91 54.16,40.08 52.66,41.73 50.6,41.73 50.1,40.66 		"/>
		<polygon class="st34" points="54.85,40.08 53.24,40.08 52,39.77 54.06,39.52 54.47,39.25 54.96,38.55 		"/>
		<polygon class="st34" points="50.1,40.66 49.35,44.99 50.83,45.41 53.66,49.75 53.1,45.48 53.24,43.08 54.16,40.08 52.66,41.73 		
			"/>
		<polygon class="st34" points="54.61,48.54 53.1,45.48 53.24,42.83 54.16,40.08 54.85,40.08 53.98,44.7 		"/>
		<polygon class="st36" points="52.65,31.59 53.89,32.93 53.27,32.93 52.66,32.26 		"/>
		<polygon class="st36" points="53.27,35.67 53.89,37.61 53.24,38.4 		"/>
		<polygon class="st36" points="52.08,39.51 53.98,39.25 54.96,38.55 54.16,37.63 53.56,38.76 		"/>
		<polygon class="st36" points="50.48,39.51 51.25,40.08 52.66,40.31 51.2,40.49 		"/>
		<polygon class="st36" points="54.47,48.25 54.47,50.2 55.17,51 		"/>
		<polygon class="st36" points="50.04,55.93 49.53,58.44 49.91,59.06 50.26,59.51 49.53,59.12 49.35,58.4 49.68,56.21 		"/>
		<polygon class="st36" points="55.19,52.92 55.58,58.38 55.99,58.67 56.7,59.37 55.95,58.91 55.41,58.54 55.47,58.36 54.93,53.08 
					"/>
	</g>
</g>
<g id="Layer_12" class="st0">
	<g class="st16">
		<polygon class="st41" points="25.43,12.37 27.23,11.6 28.17,9.03 30.39,8.61 31.84,9.72 31.84,12.88 31.16,13.9 30.39,14.42 
			30.3,15.7 32.78,16.38 32.78,19.46 31.79,24.84 33.55,26.72 36.97,31.85 38.94,36.98 37.74,42.53 33.98,43.99 29.28,46.12 
			25.43,45.18 23.3,43.56 20.16,46.38 17.74,47.75 14.24,52.19 10.65,54.93 13.3,57.32 13.72,58.35 15.35,58.86 15.09,59.97 
			10.65,61.17 4.92,58.86 6.55,55.27 4.92,49.8 7.23,44.5 6.63,37.66 12.78,29.46 12.36,24.84 15.86,22.37 15.18,20.4 15.86,19.46 
			16.03,15.61 14.58,15.02 11.25,15.27 7.91,13.31 5.43,12.28 2.61,9.29 0.39,9.2 0.39,6.55 2.87,6.04 3.38,7.75 5.95,9.12 
			9.11,9.37 16.46,9.97 21.42,9.29 		"/>
		<polygon class="st42" points="34.24,42.79 35.77,45.7 36.29,49.2 34.83,52.88 36.8,54.76 36.8,55.35 35.09,56.29 30.82,56.29 
			28.94,55.27 29.96,52.53 29.45,49.54 26.97,47.92 24.09,44.16 29.11,39.54 		"/>
		<linearGradient id="SVGID_9_" gradientUnits="userSpaceOnUse" x1="23.1057" y1="44.3358" x2="26.8661" y2="31.1743">
			<stop  offset="0" style="stop-color:#000000"/>
			<stop  offset="0.5673" style="stop-color:#322F30"/>
			<stop  offset="1" style="stop-color:#464344"/>
		</linearGradient>
		<polygon class="st43" points="13.55,28.35 15.95,29.2 20.16,34.67 24.09,38.09 28.53,40.08 32.95,40.4 36.8,39.54 38.94,36.98 
			37.74,42.53 29.28,46.12 25.43,45.18 23.3,43.56 20.65,40.31 18.17,38.6 15.18,29.97 		"/>
		<linearGradient id="SVGID_10_" gradientUnits="userSpaceOnUse" x1="5.1209" y1="43.4146" x2="22.1355" y2="46.686">
			<stop  offset="0" style="stop-color:#000000"/>
			<stop  offset="1" style="stop-color:#464344"/>
		</linearGradient>
		<polygon class="st44" points="12.78,29.46 13.55,28.35 15.18,29.97 18.17,38.6 13.55,33.6 10.93,38.23 11.59,44.41 7.49,50.68 
			7.49,55.01 8.26,57.58 12.78,59.11 15.35,58.86 15.09,59.97 10.65,61.17 4.92,58.86 6.55,55.27 4.92,49.8 7.23,44.5 6.63,37.66 		
			"/>
		<linearGradient id="SVGID_11_" gradientUnits="userSpaceOnUse" x1="22.6728" y1="24.5781" x2="22.4958" y2="20.0939">
			<stop  offset="0" style="stop-color:#000000"/>
			<stop  offset="1" style="stop-color:#464344"/>
		</linearGradient>
		<polygon class="st45" points="17.06,21.51 18.51,22.54 21.33,25.1 27.31,22.88 28.51,20.57 28.51,18.35 16.37,19.12 		"/>
		<linearGradient id="SVGID_12_" gradientUnits="userSpaceOnUse" x1="31.5013" y1="24.5872" x2="31.5013" y2="18.4189">
			<stop  offset="0" style="stop-color:#000000"/>
			<stop  offset="1" style="stop-color:#464344"/>
		</linearGradient>
		<polygon class="st46" points="30.82,18.35 31.59,21 33.3,22.84 32.06,24.25 30.3,23.39 29.71,21.68 		"/>
	</g>
</g>
<g id="Layer_9" class="st0">
	<g class="st16">
		<polygon class="st37" points="47.29,11.85 48.64,12.66 48.64,13.15 49.12,14.02 49.12,15.2 48.85,16.34 47.56,16.12 46.15,15.64 
			44.85,13.8 45.66,11.85 		"/>
		<polygon class="st47" points="49.66,14.12 49.12,14.02 48.85,12.94 48.85,12.23 48.42,12.5 48.64,12.66 48.64,13.21 49.1,13.99 
			49.12,14.94 		"/>
		<polygon class="st37" points="47.02,15.48 47.29,17.15 48.2,18.93 46.53,18.72 46.69,17.2 45.77,15.69 		"/>
		<polygon class="st48" points="46.45,18.26 45.53,17.56 47.1,17.56 48.93,19.18 50.23,21.83 51.53,23.01 51.1,24.1 51.1,26.04 
			51.91,28.63 53.15,30.26 54.55,34.85 54.18,39.55 52.83,42.63 52.07,45.06 51.1,46.14 50.07,50.31 49.58,54.2 49.58,57.01 
			50.77,59.22 52.83,59.82 52.61,60.3 50.88,60.63 49.8,60.41 47.96,60.63 47.1,60.14 48.07,58.14 47.85,54.25 47.1,50.63 
			47.1,50.04 42.34,54.14 40.45,56.03 38.61,58.63 38.4,59.28 39.15,59.66 38.99,60.09 37.91,60.25 37.31,59.98 37.04,58.9 
			37.69,57.39 37.48,56.09 38.13,55.12 39.58,55.22 41.48,52.41 43.58,49.39 47.04,46.74 47.75,45.39 47.69,43.5 48.5,39.77 
			48.56,37.34 48.12,36.47 48.29,34.69 49.74,32.15 49.74,29.23 48.29,27.01 47.1,24.8 45.85,21.18 46.07,19.12 		"/>
		<polygon class="st49" points="49.39,18.93 49.66,20.81 48.85,23.04 47.93,27.69 49.12,28.56 51.56,31.53 52.37,31.74 53.77,31.2 
			55.23,32.66 54.64,32.66 54.1,32.34 54.47,33.26 54.2,33.94 53.45,33.26 52.47,33.47 50.8,32.01 45.72,28.23 47.56,23.31 
			47.72,20.18 48.42,19.15 		"/>
		<polygon class="st50" points="47.02,22.99 44.85,28.23 44.26,30.23 41.39,35.96 41.39,36.55 41.83,36.98 41.39,38.28 40.31,38.28 
			39.5,37.69 39.5,35.58 40.85,35.58 42.42,29.53 44.85,25.64 46.37,20.23 		"/>
		<polygon class="st50" points="48.88,12.21 47.85,11.77 47.26,11.23 44.99,10.91 43.85,12.53 44.66,14.96 44.88,15.99 46.18,16.31 
			47.15,16.15 45.83,14.77 46.58,13.64 47.56,12.88 46.91,12.18 48.18,12.69 		"/>
		<polygon class="st50" points="49.64,32.15 46.99,36.25 45.69,40.58 42.72,45.33 38.83,48.85 34.4,48.58 32.45,45.17 29.1,43.6 
			25.26,44.47 25.26,43.12 22.29,46.2 26.78,45.87 25.91,45.12 28.99,44.47 32.02,45.71 33.96,49.33 39.04,49.6 43.26,45.98 
			46.34,40.9 48.18,36.47 		"/>
		<polygon class="st50" points="39.9,36.07 38.17,35.7 36.76,37.32 36.54,39.79 38.99,44.63 40.31,45.8 41.8,44.24 41.84,40.31 
			41.06,37.75 40.57,37.72 41.35,40.55 41.23,43.82 40.23,44.7 39.12,43.72 37.09,39.53 37.35,37.36 38.38,36.44 39.76,36.82 		"/>
		<polygon class="st50" points="40.07,36.17 38.36,36.06 37.17,37.76 37.23,40.11 38.9,42.57 40.63,43.89 41.94,42.43 42.43,39.89 
			41.39,37.59 40.92,37.63 41.98,40.19 41.59,42.38 40.64,43 39.3,42.21 37.74,39.79 37.75,37.72 38.64,36.72 40.02,36.89 		"/>
	</g>
</g>
</svg>
